<svg width="24.000000" height="24.000000" viewBox="0 0 24 24" fill="none" xmlns="http://www.w3.org/2000/svg" xmlns:xlink="http://www.w3.org/1999/xlink">
	<desc>
			Created with Pixso.
	</desc>
	<defs>
		<clipPath id="clip97_8736">
			<rect id="Icon" width="24.000000" height="24.000000" transform="translate(-0.500000 0.000000)" fill="white" fill-opacity="0"/>
		</clipPath>
	</defs>
	<g clip-path="url(#clip97_8736)">
		<path id="Vector (Stroke)" d="M1 4.5C1 2.84 2.34 1.5 4 1.5L5.37 1.5C6.23 1.5 6.98 2.08 7.19 2.92L8.29 7.34C8.47 8.07 8.2 8.84 7.6 9.29L6.3 10.26C6.17 10.36 6.14 10.51 6.18 10.61C7.31 13.71 9.78 16.18 12.88 17.31C12.98 17.35 13.13 17.32 13.23 17.19L14.2 15.89C14.65 15.29 15.42 15.02 16.15 15.2L20.58 16.3C21.41 16.51 22 17.26 22 18.12L22 19.5C22 21.15 20.65 22.5 19 22.5L16.75 22.5C8.05 22.5 1 15.44 1 6.75L1 4.5Z" fill="#FFFFFF" fill-opacity="1.000000" fill-rule="evenodd"/>
	</g>
</svg>
