<svg width="82.000000" height="82.000000" viewBox="0 0 82 82" fill="none" xmlns="http://www.w3.org/2000/svg" xmlns:xlink="http://www.w3.org/1999/xlink">
	<desc>
			Created with Pixso.
	</desc>
	<defs>
		<clipPath id="clip122_2115">
			<rect id="Icon" width="34.000000" height="34.000000" transform="translate(24.000000 23.500000)" fill="white" fill-opacity="0"/>
		</clipPath>
		<linearGradient id="paint_linear_104_11828_0" x1="6.750008" y1="85.999977" x2="85.750023" y2="-5.999985" gradientUnits="userSpaceOnUse">
			<stop stop-color="#A685FA"/>
			<stop offset="0.323723" stop-color="#A685FA" stop-opacity="0.000000"/>
		</linearGradient>
		<linearGradient id="paint_linear_104_11828_1" x1="81.750000" y1="-11.000015" x2="6.750031" y2="81.500008" gradientUnits="userSpaceOnUse">
			<stop stop-color="#A685FA"/>
			<stop offset="0.576615" stop-color="#A685FA" stop-opacity="0.000000"/>
		</linearGradient>
		<linearGradient id="paint_linear_104_11829_0" x1="3.250000" y1="13.000000" x2="71.750000" y2="71.500000" gradientUnits="userSpaceOnUse">
			<stop stop-color="#A685FA"/>
			<stop offset="0.323723" stop-color="#A685FA" stop-opacity="0.000000"/>
		</linearGradient>
		<linearGradient id="paint_linear_104_11829_1" x1="84.250000" y1="85.500015" x2="12.249989" y2="34.500031" gradientUnits="userSpaceOnUse">
			<stop stop-color="#A685FA"/>
			<stop offset="0.576615" stop-color="#A685FA" stop-opacity="0.000000"/>
		</linearGradient>
	</defs>
	<g clip-path="url(#clip122_2115)">
		<path id="Union" d="M50.03 26.68C48.56 26.68 47.37 27.87 47.37 29.34L47.37 51.65C47.37 53.12 48.56 54.31 50.03 54.31L51.09 54.31C52.56 54.31 53.75 53.12 53.75 51.65L53.75 29.34C53.75 27.87 52.56 26.68 51.09 26.68L50.03 26.68ZM37.81 35.71C37.81 34.25 39 33.06 40.46 33.06L41.53 33.06C43 33.06 44.18 34.25 44.18 35.71L44.18 51.65C44.18 53.12 43 54.31 41.53 54.31L40.46 54.31C39 54.31 37.81 53.12 37.81 51.65L37.81 35.71ZM30.9 39.43C29.43 39.43 28.25 40.62 28.25 42.09L28.25 51.65C28.25 53.12 29.43 54.31 30.9 54.31L31.96 54.31C33.43 54.31 34.62 53.12 34.62 51.65L34.62 42.09C34.62 40.62 33.43 39.43 31.96 39.43L30.9 39.43Z" fill="#A685FA" fill-opacity="1.000000" fill-rule="evenodd"/>
	</g>
	<rect id="Container" rx="30.500000" width="61.000000" height="61.000000" transform="translate(10.500000 10.000000)" stroke="url(#paint_linear_104_11829_0)" stroke-opacity="1.000000" stroke-width="1.000000"/>
	<rect id="Container" rx="30.500000" width="61.000000" height="61.000000" transform="translate(10.500000 10.000000)" stroke="url(#paint_linear_104_11829_1)" stroke-opacity="1.000000" stroke-width="1.000000"/>
	<rect id="Icon Container" rx="40.500000" width="81.000000" height="81.000000" transform="translate(0.500000 0.000000)" stroke="url(#paint_linear_104_11828_0)" stroke-opacity="1.000000" stroke-width="1.000000"/>
	<rect id="Icon Container" rx="40.500000" width="81.000000" height="81.000000" transform="translate(0.500000 0.000000)" stroke="url(#paint_linear_104_11828_1)" stroke-opacity="1.000000" stroke-width="1.000000"/>
</svg>
