<svg width="82.000000" height="82.000000" viewBox="0 0 82 82" fill="none" xmlns="http://www.w3.org/2000/svg" xmlns:xlink="http://www.w3.org/1999/xlink">
	<desc>
			Created with Pixso.
	</desc>
	<defs>
		<clipPath id="clip104_13310">
			<rect id="Icon" width="34.000000" height="34.000000" transform="translate(23.500000 24.000000)" fill="white" fill-opacity="0"/>
		</clipPath>
		<linearGradient id="paint_linear_104_12846_0" x1="6.250008" y1="86.499977" x2="85.250023" y2="-5.499985" gradientUnits="userSpaceOnUse">
			<stop stop-color="#A685FA"/>
			<stop offset="0.323723" stop-color="#A685FA" stop-opacity="0.000000"/>
		</linearGradient>
		<linearGradient id="paint_linear_104_12846_1" x1="81.250000" y1="-10.500015" x2="6.250031" y2="82.000008" gradientUnits="userSpaceOnUse">
			<stop stop-color="#A685FA"/>
			<stop offset="0.576615" stop-color="#A685FA" stop-opacity="0.000000"/>
		</linearGradient>
		<linearGradient id="paint_linear_104_12847_0" x1="2.750000" y1="13.500000" x2="71.250000" y2="72.000000" gradientUnits="userSpaceOnUse">
			<stop stop-color="#A685FA"/>
			<stop offset="0.323723" stop-color="#A685FA" stop-opacity="0.000000"/>
		</linearGradient>
		<linearGradient id="paint_linear_104_12847_1" x1="83.750000" y1="86.000015" x2="11.749989" y2="35.000031" gradientUnits="userSpaceOnUse">
			<stop stop-color="#A685FA"/>
			<stop offset="0.576615" stop-color="#A685FA" stop-opacity="0.000000"/>
		</linearGradient>
	</defs>
	<g clip-path="url(#clip104_13310)">
		<path id="Vector (Stroke)" d="M25.62 30.37C25.62 28.02 27.52 26.12 29.87 26.12L31.81 26.12C33.03 26.12 34.09 26.95 34.39 28.13L35.96 34.4C36.22 35.43 35.83 36.53 34.97 37.17L33.14 38.54C32.95 38.68 32.91 38.89 32.96 39.04C34.57 43.43 38.06 46.92 42.45 48.53C42.6 48.58 42.8 48.54 42.95 48.35L44.32 46.52C44.96 45.66 46.05 45.27 47.09 45.53L53.36 47.1C54.54 47.4 55.37 48.46 55.37 49.68L55.37 51.62C55.37 53.97 53.47 55.87 51.12 55.87L47.93 55.87C35.61 55.87 25.62 45.88 25.62 33.56L25.62 30.37Z" fill="#A685FA" fill-opacity="1.000000" fill-rule="evenodd"/>
	</g>
	<rect id="Container" rx="30.500000" width="61.000000" height="61.000000" transform="translate(10.000000 10.500000)" stroke="url(#paint_linear_104_12847_0)" stroke-opacity="1.000000" stroke-width="1.000000"/>
	<rect id="Container" rx="30.500000" width="61.000000" height="61.000000" transform="translate(10.000000 10.500000)" stroke="url(#paint_linear_104_12847_1)" stroke-opacity="1.000000" stroke-width="1.000000"/>
	<rect id="Icon Container" rx="40.500000" width="81.000000" height="81.000000" transform="translate(0.000000 0.500000)" stroke="url(#paint_linear_104_12846_0)" stroke-opacity="1.000000" stroke-width="1.000000"/>
	<rect id="Icon Container" rx="40.500000" width="81.000000" height="81.000000" transform="translate(0.000000 0.500000)" stroke="url(#paint_linear_104_12846_1)" stroke-opacity="1.000000" stroke-width="1.000000"/>
</svg>
