<svg width="24.000000" height="24.000000" viewBox="0 0 24 24" fill="none" xmlns="http://www.w3.org/2000/svg" xmlns:xlink="http://www.w3.org/1999/xlink">
	<desc>
			Created with Pixso.
	</desc>
	<defs>
		<clipPath id="clip122_2010">
			<rect id="BACKGROUND_2" width="21.017076" height="21.000000" transform="translate(1.000000 1.500000)" fill="white" fill-opacity="0"/>
		</clipPath>
		<clipPath id="clip122_2009">
			<rect id="Icon" width="24.000000" height="24.000000" transform="translate(0.000000 -0.500000)" fill="white" fill-opacity="0"/>
		</clipPath>
	</defs>
	<g clip-path="url(#clip122_2009)">
		<rect id="BACKGROUND_2" width="21.017076" height="21.000000" transform="translate(1.000000 1.500000)" fill="#FFFFFF" fill-opacity="0"/>
		<g clip-path="url(#clip122_2010)">
			<path id="Vector" d="M2.26 15.26L12.1 15.26L12.1 17.06L18.26 17.06L18.26 15.26L20.7 15.26C20.86 17.41 20.87 19.33 18.67 20.78C18.64 20.8 18.62 20.83 18.56 20.88C18.83 21.11 19.1 21.33 19.36 21.55C19 21.89 18.72 22.16 18.39 22.48C18.1 22.18 17.78 21.83 17.44 21.52C17.34 21.42 17.16 21.38 17.02 21.38C16.78 21.36 16.54 21.4 16.3 21.4C13.1 21.4 9.91 21.4 6.71 21.4C6.56 21.4 6.39 21.43 6.25 21.39C5.83 21.26 5.56 21.46 5.3 21.76C5.09 22.02 4.84 22.26 4.61 22.5C4.31 22.18 4.03 21.89 3.73 21.57C3.93 21.39 4.19 21.16 4.49 20.9C4.28 20.75 4.13 20.65 3.99 20.54C2.92 19.72 2.35 18.63 2.27 17.29C2.23 16.62 2.26 15.96 2.26 15.26L2.26 15.26Z" fill="#FFFFFF" fill-opacity="1.000000" fill-rule="nonzero"/>
			<path id="Vector" d="M2.27 10.28C2.27 10.16 2.26 10.06 2.26 9.95C2.26 8.21 2.25 6.47 2.26 4.73C2.26 2.82 3.59 1.48 5.5 1.5C6.14 1.5 6.8 1.49 7.41 1.63C8.51 1.89 9.2 2.65 9.53 3.72C9.59 3.92 9.68 4.02 9.9 4.09C11.19 4.43 12.09 5.64 12.11 6.98C12.11 7.19 12.11 7.41 12.11 7.64L6.02 7.64C5.73 6.11 6.56 4.52 8.31 4.03C8.15 3.35 7.48 2.77 6.77 2.74C6.23 2.72 5.7 2.72 5.16 2.74C4.24 2.78 3.5 3.63 3.49 4.64C3.48 6.39 3.49 8.14 3.49 9.9C3.49 10.01 3.49 10.13 3.49 10.28L2.27 10.28L2.27 10.28Z" fill="#FFFFFF" fill-opacity="1.000000" fill-rule="nonzero"/>
			<path id="Vector" d="M12.09 14.03C11.96 14.03 11.86 14.03 11.77 14.03C8.64 14.03 5.51 14.03 2.38 14.03C1.71 14.03 1.23 13.71 1.06 13.16C0.8 12.35 1.38 11.56 2.26 11.55C3.2 11.53 4.14 11.54 5.08 11.54C7.29 11.54 9.5 11.54 11.71 11.54C11.83 11.54 11.95 11.54 12.09 11.54L12.09 14.03L12.09 14.03Z" fill="#FFFFFF" fill-opacity="1.000000" fill-rule="nonzero"/>
			<path id="Vector" d="M17.02 15.87L13.36 15.87C13.35 15.75 13.34 15.65 13.34 15.54C13.34 14.27 13.34 13 13.34 11.74C13.34 10.82 13.84 10.31 14.76 10.31C15.1 10.31 15.44 10.3 15.77 10.31C16.54 10.34 17.03 10.85 17.04 11.61C17.04 12.93 17.04 14.26 17.04 15.58C17.04 15.67 17.03 15.75 17.02 15.87Z" fill="#FFFFFF" fill-opacity="1.000000" fill-rule="nonzero"/>
			<path id="Vector" d="M18.28 14.02L18.28 11.54C18.87 11.54 19.46 11.54 20.05 11.54C20.35 11.54 20.66 11.52 20.96 11.57C21.61 11.68 22.04 12.21 22.01 12.83C21.99 13.45 21.53 13.97 20.89 14C20.03 14.05 19.17 14.02 18.28 14.02L18.28 14.02Z" fill="#FFFFFF" fill-opacity="1.000000" fill-rule="nonzero"/>
		</g>
	</g>
</svg>
