<svg width="24.000000" height="24.000000" viewBox="0 0 24 24" fill="none" xmlns="http://www.w3.org/2000/svg" xmlns:xlink="http://www.w3.org/1999/xlink">
	<desc>
			Created with Pixso.
	</desc>
	<defs>
		<clipPath id="clip122_2081">
			<rect id="Icon" width="24.000000" height="24.000000" transform="translate(-0.599609 0.000000)" fill="white" fill-opacity="0"/>
		</clipPath>
	</defs>
	<g clip-path="url(#clip122_2081)">
		<path id="Union" d="M0.9 4.87C0.9 3.83 1.74 3 2.77 3L20.02 3C21.06 3 21.9 3.83 21.9 4.87L21.9 14.62C21.9 15.66 21.06 16.5 20.02 16.5L2.77 16.5C1.74 16.5 0.9 15.66 0.9 14.62L0.9 4.87ZM7.65 9.75C7.65 7.67 9.33 6 11.4 6C13.47 6 15.15 7.67 15.15 9.75C15.15 11.82 13.47 13.5 11.4 13.5C9.33 13.5 7.65 11.82 7.65 9.75ZM11.4 7.5C10.15 7.5 9.15 8.5 9.15 9.75C9.15 10.99 10.15 12 11.4 12C12.64 12 13.65 10.99 13.65 9.75C13.65 8.5 12.64 7.5 11.4 7.5ZM3.9 9.75C3.9 9.33 4.23 9 4.65 9L4.65 9C5.07 9 5.4 9.33 5.4 9.75L5.4 9.75C5.4 10.17 5.07 10.5 4.65 10.5L4.65 10.5C4.23 10.5 3.9 10.17 3.9 9.75L3.9 9.75ZM18.15 9C17.73 9 17.4 9.33 17.4 9.75L17.4 9.75C17.4 10.17 17.73 10.5 18.15 10.5L18.15 10.5C18.57 10.5 18.9 10.17 18.9 9.75L18.9 9.75C18.9 9.33 18.57 9 18.15 9L18.15 9ZM0.9 18.75C0.9 18.33 1.23 18 1.65 18L18.9 18C19.31 18 19.65 18.33 19.65 18.75L19.65 19.75C19.65 21.01 18.44 21.89 17.25 21.57C12.28 20.22 7.05 19.5 1.65 19.5C1.23 19.5 0.9 19.16 0.9 18.75Z" fill="#999999" fill-opacity="1.000000" fill-rule="evenodd"/>
	</g>
</svg>
