<svg width="24.000000" height="24.000000" viewBox="0 0 24 24" fill="none" xmlns="http://www.w3.org/2000/svg" xmlns:xlink="http://www.w3.org/1999/xlink">
	<desc>
			Created with Pixso.
	</desc>
	<defs>
		<clipPath id="clip122_2079">
			<rect id="Icon" width="24.000000" height="24.000000" transform="translate(-0.800781 0.000000)" fill="white" fill-opacity="0"/>
		</clipPath>
	</defs>
	<g clip-path="url(#clip122_2079)">
		<path id="Subtract" d="M18.65 2.74C18.79 3.13 18.59 3.56 18.2 3.7L1.7 9.7C1.31 9.84 0.88 9.64 0.74 9.25C0.6 8.86 0.8 8.43 1.19 8.29L2.19 7.92L2.19 2.99C2.19 2.58 2.53 2.24 2.94 2.24L4.44 2.24C4.86 2.24 5.19 2.58 5.19 2.99L5.19 6.83L17.69 2.29C18.08 2.15 18.51 2.35 18.65 2.74ZM17.19 5.66L2.21 11.11L2.19 11.12L2.19 20.24L1.44 20.24C1.03 20.24 0.69 20.58 0.69 20.99C0.69 21.41 1.03 21.74 1.44 21.74L20.94 21.74C21.36 21.74 21.69 21.41 21.69 20.99C21.69 20.58 21.36 20.24 20.94 20.24L20.19 20.24L20.19 11.77L20.69 11.95C21.08 12.09 21.51 11.89 21.65 11.5C21.79 11.11 21.59 10.68 21.2 10.54L17.19 9.08L17.19 5.66ZM17.19 10.68L17.19 20.24L18.69 20.24L18.69 11.22L17.19 10.68ZM7.44 14.99C7.44 14.58 7.78 14.24 8.19 14.24L11.19 14.24C11.61 14.24 11.94 14.58 11.94 14.99L11.94 19.49C11.94 19.91 11.61 20.24 11.19 20.24L8.19 20.24C7.78 20.24 7.44 19.91 7.44 19.49L7.44 14.99Z" fill="#999999" fill-opacity="1.000000" fill-rule="evenodd"/>
	</g>
</svg>
