<svg width="24.000000" height="24.000000" viewBox="0 0 24 24" fill="none" xmlns="http://www.w3.org/2000/svg" xmlns:xlink="http://www.w3.org/1999/xlink">
	<desc>
			Created with Pixso.
	</desc>
	<defs>
		<clipPath id="clip122_2085">
			<rect id="Icon" width="24.000000" height="24.000000" transform="translate(-0.199219 0.000000)" fill="white" fill-opacity="0"/>
		</clipPath>
	</defs>
	<g clip-path="url(#clip122_2085)">
		<path id="Vector (Stroke)" d="M6.55 2.25C6.96 2.25 7.3 2.58 7.3 3L7.3 4.5L16.3 4.5L16.3 3C16.3 2.58 16.63 2.25 17.05 2.25C17.46 2.25 17.8 2.58 17.8 3L17.8 4.5L18.55 4.5C20.2 4.5 21.55 5.84 21.55 7.5L21.55 18.75C21.55 20.4 20.2 21.75 18.55 21.75L5.05 21.75C3.39 21.75 2.05 20.4 2.05 18.75L2.05 7.5C2.05 5.84 3.39 4.5 5.05 4.5L5.8 4.5L5.8 3C5.8 2.58 6.13 2.25 6.55 2.25ZM20.05 11.25C20.05 10.42 19.37 9.75 18.55 9.75L5.05 9.75C4.22 9.75 3.55 10.42 3.55 11.25L3.55 18.75C3.55 19.57 4.22 20.25 5.05 20.25L18.55 20.25C19.37 20.25 20.05 19.57 20.05 18.75L20.05 11.25Z" fill="#999999" fill-opacity="1.000000" fill-rule="evenodd"/>
	</g>
</svg>
