<svg width="82.000000" height="82.000000" viewBox="0 0 82 82" fill="none" xmlns="http://www.w3.org/2000/svg" xmlns:xlink="http://www.w3.org/1999/xlink">
	<desc>
			Created with Pixso.
	</desc>
	<defs>
		<clipPath id="clip122_1927">
			<rect id="Icon" width="34.000000" height="34.000000" transform="translate(23.500000 24.000000)" fill="white" fill-opacity="0"/>
		</clipPath>
		<linearGradient id="paint_linear_121_1892_0" x1="6.250008" y1="86.499977" x2="85.250023" y2="-5.499985" gradientUnits="userSpaceOnUse">
			<stop stop-color="#A685FA"/>
			<stop offset="0.323723" stop-color="#A685FA" stop-opacity="0.000000"/>
		</linearGradient>
		<linearGradient id="paint_linear_121_1892_1" x1="81.250000" y1="-10.500015" x2="6.250031" y2="82.000008" gradientUnits="userSpaceOnUse">
			<stop stop-color="#A685FA"/>
			<stop offset="0.576615" stop-color="#A685FA" stop-opacity="0.000000"/>
		</linearGradient>
		<linearGradient id="paint_linear_121_1893_0" x1="2.750000" y1="13.500000" x2="71.250000" y2="72.000000" gradientUnits="userSpaceOnUse">
			<stop stop-color="#A685FA"/>
			<stop offset="0.323723" stop-color="#A685FA" stop-opacity="0.000000"/>
		</linearGradient>
		<linearGradient id="paint_linear_121_1893_1" x1="83.750000" y1="86.000015" x2="11.749989" y2="35.000031" gradientUnits="userSpaceOnUse">
			<stop stop-color="#A685FA"/>
			<stop offset="0.576615" stop-color="#A685FA" stop-opacity="0.000000"/>
		</linearGradient>
	</defs>
	<g clip-path="url(#clip122_1927)">
		<path id="Union" d="M35.6 36.1C33.61 38.09 30.38 38.09 28.39 36.1C26.4 34.11 26.4 30.88 28.39 28.89L28.89 28.39C29.52 27.75 30.39 27.4 31.29 27.4L49.7 27.4C50.6 27.4 51.47 27.75 52.1 28.39L52.6 28.89C54.59 30.88 54.59 34.11 52.6 36.1C50.61 38.09 47.38 38.09 45.39 36.1C45.14 35.86 44.93 35.59 44.75 35.31C43.83 36.69 42.27 37.59 40.5 37.59C38.72 37.59 37.16 36.69 36.25 35.32C36.06 35.59 35.85 35.86 35.6 36.1ZM36.25 38.86C33.96 40.39 31.02 40.55 28.6 39.35L28.6 52.05L28.17 52.05C27.47 52.05 26.89 52.62 26.89 53.32C26.89 54.02 27.47 54.6 28.17 54.6L35.82 54.6C36.52 54.6 37.1 54.02 37.1 53.32L37.1 47.37C37.1 46.67 37.67 46.1 38.37 46.1L42.62 46.1C43.32 46.1 43.89 46.67 43.89 47.37L43.89 53.32C43.89 54.02 44.47 54.6 45.17 54.6L52.82 54.6C53.52 54.6 54.1 54.02 54.1 53.32C54.1 52.62 53.52 52.05 52.82 52.05L52.39 52.05L52.39 39.35C49.97 40.55 47.03 40.39 44.74 38.86C43.53 39.67 42.07 40.14 40.5 40.14C38.92 40.14 37.46 39.67 36.25 38.86Z" fill="#A685FA" fill-opacity="1.000000" fill-rule="evenodd"/>
	</g>
	<rect id="Container" rx="30.500000" width="61.000000" height="61.000000" transform="translate(10.000000 10.500000)" stroke="url(#paint_linear_121_1893_0)" stroke-opacity="1.000000" stroke-width="1.000000"/>
	<rect id="Container" rx="30.500000" width="61.000000" height="61.000000" transform="translate(10.000000 10.500000)" stroke="url(#paint_linear_121_1893_1)" stroke-opacity="1.000000" stroke-width="1.000000"/>
	<rect id="Icon Container" rx="40.500000" width="81.000000" height="81.000000" transform="translate(0.000000 0.500000)" stroke="url(#paint_linear_121_1892_0)" stroke-opacity="1.000000" stroke-width="1.000000"/>
	<rect id="Icon Container" rx="40.500000" width="81.000000" height="81.000000" transform="translate(0.000000 0.500000)" stroke="url(#paint_linear_121_1892_1)" stroke-opacity="1.000000" stroke-width="1.000000"/>
</svg>
