<svg width="82.000000" height="82.000000" viewBox="0 0 82 82" fill="none" xmlns="http://www.w3.org/2000/svg" xmlns:xlink="http://www.w3.org/1999/xlink">
	<desc>
			Created with Pixso.
	</desc>
	<defs>
		<clipPath id="clip122_1931">
			<rect id="Icon" width="34.000000" height="34.000000" transform="translate(23.500000 24.000000)" fill="white" fill-opacity="0"/>
		</clipPath>
		<linearGradient id="paint_linear_121_1908_0" x1="6.250008" y1="86.499977" x2="85.250023" y2="-5.499985" gradientUnits="userSpaceOnUse">
			<stop stop-color="#A685FA"/>
			<stop offset="0.323723" stop-color="#A685FA" stop-opacity="0.000000"/>
		</linearGradient>
		<linearGradient id="paint_linear_121_1908_1" x1="81.250000" y1="-10.500015" x2="6.250031" y2="82.000008" gradientUnits="userSpaceOnUse">
			<stop stop-color="#A685FA"/>
			<stop offset="0.576615" stop-color="#A685FA" stop-opacity="0.000000"/>
		</linearGradient>
		<linearGradient id="paint_linear_121_1909_0" x1="2.750000" y1="13.500000" x2="71.250000" y2="72.000000" gradientUnits="userSpaceOnUse">
			<stop stop-color="#A685FA"/>
			<stop offset="0.323723" stop-color="#A685FA" stop-opacity="0.000000"/>
		</linearGradient>
		<linearGradient id="paint_linear_121_1909_1" x1="83.750000" y1="86.000015" x2="11.749989" y2="35.000031" gradientUnits="userSpaceOnUse">
			<stop stop-color="#A685FA"/>
			<stop offset="0.576615" stop-color="#A685FA" stop-opacity="0.000000"/>
		</linearGradient>
	</defs>
	<g clip-path="url(#clip122_1931)">
		<path id="Subtract" d="M26.47 27.4C25.77 27.4 25.2 27.97 25.2 28.67C25.2 29.37 25.77 29.95 26.47 29.95L26.9 29.95L26.9 52.05L26.47 52.05C25.77 52.05 25.2 52.62 25.2 53.32C25.2 54.02 25.77 54.6 26.47 54.6L30.72 54.6C31.42 54.6 32 54.02 32 53.32L32 49.07C32 48.37 32.57 47.8 33.27 47.8L37.52 47.8C38.22 47.8 38.8 48.37 38.8 49.07L38.8 53.32C38.8 54.02 39.37 54.6 40.07 54.6L42.62 54.6C43.32 54.6 43.9 54.02 43.9 53.32L43.9 29.95L44.32 29.95C45.02 29.95 45.6 29.37 45.6 28.67C45.6 27.97 45.02 27.4 44.32 27.4L26.47 27.4ZM31.15 32.5C30.68 32.5 30.3 32.88 30.3 33.34L30.3 35.05C30.3 35.51 30.68 35.9 31.15 35.9L32.85 35.9C33.31 35.9 33.7 35.51 33.7 35.05L33.7 33.34C33.7 32.88 33.31 32.5 32.85 32.5L31.15 32.5ZM37.95 32.5C37.48 32.5 37.1 32.88 37.1 33.34L37.1 35.05C37.1 35.51 37.48 35.9 37.95 35.9L39.65 35.9C40.11 35.9 40.5 35.51 40.5 35.05L40.5 33.34C40.5 32.88 40.11 32.5 39.65 32.5L37.95 32.5ZM46.45 35.47C46.45 34.77 47.02 34.2 47.72 34.2L54.52 34.2C55.22 34.2 55.8 34.77 55.8 35.47C55.8 36.17 55.22 36.75 54.52 36.75L54.1 36.75L54.1 52.05L54.52 52.05C55.22 52.05 55.8 52.62 55.8 53.32C55.8 54.02 55.22 54.6 54.52 54.6L48.15 54.6C47.21 54.6 46.45 53.83 46.45 52.9L46.45 35.47ZM30.3 40.15C30.3 39.68 30.68 39.3 31.15 39.3L32.85 39.3C33.31 39.3 33.7 39.68 33.7 40.15L33.7 41.85C33.7 42.31 33.31 42.7 32.85 42.7L31.15 42.7C30.68 42.7 30.3 42.31 30.3 41.85L30.3 40.15ZM37.1 40.15C37.1 39.68 37.48 39.3 37.95 39.3L39.65 39.3C40.11 39.3 40.5 39.68 40.5 40.15L40.5 41.85C40.5 42.31 40.11 42.7 39.65 42.7L37.95 42.7C37.48 42.7 37.1 42.31 37.1 41.85L37.1 40.15ZM49.42 39.3C48.95 39.3 48.57 39.68 48.57 40.15L48.57 41.85C48.57 42.31 48.95 42.7 49.42 42.7L51.12 42.7C51.59 42.7 51.97 42.31 51.97 41.85L51.97 40.15C51.97 39.68 51.59 39.3 51.12 39.3L49.42 39.3ZM48.57 46.95C48.57 46.48 48.95 46.1 49.42 46.1L51.12 46.1C51.59 46.1 51.97 46.48 51.97 46.95L51.97 48.65C51.97 49.11 51.59 49.5 51.12 49.5L49.42 49.5C48.95 49.5 48.57 49.11 48.57 48.65L48.57 46.95Z" fill="#A685FA" fill-opacity="1.000000" fill-rule="evenodd"/>
	</g>
	<rect id="Container" rx="30.500000" width="61.000000" height="61.000000" transform="translate(10.000000 10.500000)" stroke="url(#paint_linear_121_1909_0)" stroke-opacity="1.000000" stroke-width="1.000000"/>
	<rect id="Container" rx="30.500000" width="61.000000" height="61.000000" transform="translate(10.000000 10.500000)" stroke="url(#paint_linear_121_1909_1)" stroke-opacity="1.000000" stroke-width="1.000000"/>
	<rect id="Icon Container" rx="40.500000" width="81.000000" height="81.000000" transform="translate(0.000000 0.500000)" stroke="url(#paint_linear_121_1908_0)" stroke-opacity="1.000000" stroke-width="1.000000"/>
	<rect id="Icon Container" rx="40.500000" width="81.000000" height="81.000000" transform="translate(0.000000 0.500000)" stroke="url(#paint_linear_121_1908_1)" stroke-opacity="1.000000" stroke-width="1.000000"/>
</svg>
