<svg width="24.000000" height="24.000000" viewBox="0 0 24 24" fill="none" xmlns="http://www.w3.org/2000/svg" xmlns:xlink="http://www.w3.org/1999/xlink">
	<desc>
			Created with Pixso.
	</desc>
	<defs>
		<clipPath id="clip122_2016">
			<rect id="Icon" width="24.000000" height="24.000000" transform="translate(0.000000 -0.500000)" fill="white" fill-opacity="0"/>
		</clipPath>
	</defs>
	<g clip-path="url(#clip122_2016)">
		<path id="Subtract" d="M4.80029 3.69989L4.80029 19.2999L4.5 19.2999C4.00293 19.2999 3.6001 19.7028 3.6001 20.1999C3.6001 20.697 4.00293 21.0999 4.5 21.0999L8.7002 21.0999C9.19727 21.0999 9.6001 20.697 9.6001 20.1999L9.6001 17.1999C9.6001 16.7028 10.0029 16.2999 10.5 16.2999L13.5 16.2999C13.9971 16.2999 14.3999 16.7028 14.3999 17.1999L14.3999 20.1999C14.3999 20.697 14.8032 21.0999 15.3003 21.0999L19.5 21.0999C19.9971 21.0999 20.3999 20.697 20.3999 20.1999C20.3999 19.7028 19.9971 19.2999 19.5 19.2999L19.2002 19.2999L19.2002 3.69989L19.5 3.69989C19.9971 3.69989 20.3999 3.29694 20.3999 2.79993C20.3999 2.30286 19.9971 1.8999 19.5 1.8999L4.5 1.8999C4.00293 1.8999 3.6001 2.30286 3.6001 2.79993C3.6001 3.29694 4.00293 3.69989 4.5 3.69989L4.80029 3.69989ZM8.3999 6.09991C8.3999 5.76855 8.66895 5.49988 9 5.49988L10.2002 5.49988C10.5312 5.49988 10.8003 5.76855 10.8003 6.09991L10.8003 7.29993C10.8003 7.63129 10.5312 7.8999 10.2002 7.8999L9 7.8999C8.66895 7.8999 8.3999 7.63129 8.3999 7.29993L8.3999 6.09991ZM13.2002 6.09991C13.2002 5.76855 13.4688 5.49988 13.8003 5.49988L15 5.49988C15.3315 5.49988 15.6001 5.76855 15.6001 6.09991L15.6001 7.29993C15.6001 7.63129 15.3315 7.8999 15 7.8999L13.8003 7.8999C13.4688 7.8999 13.2002 7.63129 13.2002 7.29993L13.2002 6.09991ZM9 10.2999C8.66895 10.2999 8.3999 10.5685 8.3999 10.8999L8.3999 12.0999C8.3999 12.4313 8.66895 12.6999 9 12.6999L10.2002 12.6999C10.5312 12.6999 10.8003 12.4313 10.8003 12.0999L10.8003 10.8999C10.8003 10.5685 10.5312 10.2999 10.2002 10.2999L9 10.2999ZM13.8003 10.2999C13.4688 10.2999 13.2002 10.5685 13.2002 10.8999L13.2002 12.0999C13.2002 12.4313 13.4688 12.6999 13.8003 12.6999L15 12.6999C15.3315 12.6999 15.6001 12.4313 15.6001 12.0999L15.6001 10.8999C15.6001 10.5685 15.3315 10.2999 15 10.2999L13.8003 10.2999Z" clip-rule="evenodd" fill="#FFFFFF" fill-opacity="1.000000" fill-rule="evenodd"/>
	</g>
</svg>
