<svg width="24.000000" height="24.000000" viewBox="0 0 24 24" fill="none" xmlns="http://www.w3.org/2000/svg" xmlns:xlink="http://www.w3.org/1999/xlink">
	<desc>
			Created with Pixso.
	</desc>
	<defs>
		<clipPath id="clip89_4281">
			<rect id="Icon" width="24.000000" height="24.000000" fill="white" fill-opacity="0"/>
		</clipPath>
	</defs>
	<rect id="Icon" width="24.000000" height="24.000000" fill="#FFFFFF" fill-opacity="0"/>
	<g clip-path="url(#clip89_4281)">
		<path id="Vector" d="M17 7L18 7L18 8C18 8.26 18.1 8.51 18.29 8.7C18.48 8.89 18.73 9 19 9C19.26 9 19.51 8.89 19.7 8.7C19.89 8.51 20 8.26 20 8L20 7L21 7C21.26 7 21.51 6.89 21.7 6.7C21.89 6.51 22 6.26 22 6C22 5.73 21.89 5.48 21.7 5.29C21.51 5.1 21.26 5 21 5L20 5L20 4C20 3.73 19.89 3.48 19.7 3.29C19.51 3.1 19.26 3 19 3C18.73 3 18.48 3.1 18.29 3.29C18.1 3.48 18 3.73 18 4L18 5L17 5C16.73 5 16.48 5.1 16.29 5.29C16.1 5.48 16 5.73 16 6C16 6.26 16.1 6.51 16.29 6.7C16.48 6.89 16.73 7 17 7ZM21 11C20.73 11 20.48 11.1 20.29 11.29C20.1 11.48 20 11.73 20 12L20 18C20 18.26 19.89 18.51 19.7 18.7C19.51 18.89 19.26 19 19 19L5 19C4.73 19 4.48 18.89 4.29 18.7C4.1 18.51 4 18.26 4 18L4 8.4L9.87 14.3C10.44 14.86 11.2 15.17 12 15.17C12.79 15.17 13.55 14.86 14.12 14.3L16.58 11.83C16.77 11.64 16.88 11.38 16.88 11.12C16.88 10.85 16.77 10.59 16.58 10.4C16.4 10.22 16.14 10.11 15.87 10.11C15.61 10.11 15.35 10.22 15.16 10.4L12.7 12.87C12.51 13.06 12.26 13.16 12 13.16C11.73 13.16 11.48 13.06 11.29 12.87L5.41 7L13 7C13.26 7 13.51 6.89 13.7 6.7C13.89 6.51 14 6.26 14 6C14 5.73 13.89 5.48 13.7 5.29C13.51 5.1 13.26 5 13 5L5 5C4.2 5 3.44 5.31 2.87 5.87C2.31 6.44 2 7.2 2 8L2 18C2 18.79 2.31 19.55 2.87 20.12C3.44 20.68 4.2 21 5 21L19 21C19.79 21 20.55 20.68 21.12 20.12C21.68 19.55 22 18.79 22 18L22 12C22 11.73 21.89 11.48 21.7 11.29C21.51 11.1 21.26 11 21 11Z" fill="#999999" fill-opacity="1.000000" fill-rule="nonzero"/>
	</g>
</svg>
