<svg width="24.000000" height="24.000000" viewBox="0 0 24 24" fill="none" xmlns="http://www.w3.org/2000/svg" xmlns:xlink="http://www.w3.org/1999/xlink">
	<desc>
			Created with Pixso.
	</desc>
	<defs>
		<clipPath id="clip115_1692">
			<rect id="Icon" width="24.000000" height="24.000000" transform="translate(0.000000 -0.500000)" fill="white" fill-opacity="0"/>
		</clipPath>
	</defs>
	<g clip-path="url(#clip115_1692)">
		<path id="Vector" d="M8.25 3.25C9.49 3.25 10.5 4.25 10.5 5.5L10.5 7.75C10.5 8.99 9.49 10 8.25 10L6 10C4.75 10 3.75 8.99 3.75 7.75L3.75 5.5C3.75 4.25 4.75 3.25 6 3.25L8.25 3.25ZM8.25 13C9.49 13 10.5 14 10.5 15.25L10.5 17.5C10.5 18.74 9.49 19.75 8.25 19.75L6 19.75C4.75 19.75 3.75 18.74 3.75 17.5L3.75 15.25C3.75 14 4.75 13 6 13L8.25 13ZM18 3.25C19.24 3.25 20.25 4.25 20.25 5.5L20.25 7.75C20.25 8.99 19.24 10 18 10L15.75 10C14.5 10 13.5 8.99 13.5 7.75L13.5 5.5C13.5 4.25 14.5 3.25 15.75 3.25L18 3.25ZM18 13C19.24 13 20.25 14 20.25 15.25L20.25 17.5C20.25 18.74 19.24 19.75 18 19.75L15.75 19.75C14.5 19.75 13.5 18.74 13.5 17.5L13.5 15.25C13.5 14 14.5 13 15.75 13L18 13Z" stroke="#999999" stroke-opacity="1.000000" stroke-width="1.500000" stroke-linejoin="round"/>
	</g>
</svg>
