<svg width="82.000000" height="82.000000" viewBox="0 0 82 82" fill="none" xmlns="http://www.w3.org/2000/svg" xmlns:xlink="http://www.w3.org/1999/xlink">
	<desc>
			Created with Pixso.
	</desc>
	<defs>
		<clipPath id="clip122_2103">
			<rect id="Icon" width="34.000000" height="34.000000" transform="translate(24.000000 24.000000)" fill="white" fill-opacity="0"/>
		</clipPath>
		<linearGradient id="paint_linear_104_11426_0" x1="6.750008" y1="86.499977" x2="85.750023" y2="-5.499985" gradientUnits="userSpaceOnUse">
			<stop stop-color="#A685FA"/>
			<stop offset="0.323723" stop-color="#A685FA" stop-opacity="0.000000"/>
		</linearGradient>
		<linearGradient id="paint_linear_104_11426_1" x1="81.750000" y1="-10.500015" x2="6.750031" y2="82.000008" gradientUnits="userSpaceOnUse">
			<stop stop-color="#A685FA"/>
			<stop offset="0.576615" stop-color="#A685FA" stop-opacity="0.000000"/>
		</linearGradient>
		<linearGradient id="paint_linear_104_11427_0" x1="3.250000" y1="13.500000" x2="71.750000" y2="72.000000" gradientUnits="userSpaceOnUse">
			<stop stop-color="#A685FA"/>
			<stop offset="0.323723" stop-color="#A685FA" stop-opacity="0.000000"/>
		</linearGradient>
		<linearGradient id="paint_linear_104_11427_1" x1="84.250000" y1="86.000015" x2="12.249989" y2="35.000031" gradientUnits="userSpaceOnUse">
			<stop stop-color="#A685FA"/>
			<stop offset="0.576615" stop-color="#A685FA" stop-opacity="0.000000"/>
		</linearGradient>
	</defs>
	<g clip-path="url(#clip122_2103)">
		<path id="Vector" d="M43.12 27.18C42.53 27.18 42.06 27.66 42.06 28.25L42.06 38.87C42.06 39.46 42.53 39.93 43.12 39.93L53.75 39.93C54.33 39.93 54.81 39.46 54.81 38.87C54.81 32.42 49.57 27.18 43.12 27.18ZM38.87 31.43C32.42 31.43 27.18 36.67 27.18 43.12C27.18 49.57 32.42 54.81 38.87 54.81C45.32 54.81 50.56 49.57 50.56 43.12C50.56 42.53 50.08 42.06 49.5 42.06L39.93 42.06L39.93 32.5C39.93 31.91 39.46 31.43 38.87 31.43Z" fill="#A685FA" fill-opacity="1.000000" fill-rule="evenodd"/>
	</g>
	<rect id="Container" rx="30.500000" width="61.000000" height="61.000000" transform="translate(10.500000 10.500000)" stroke="url(#paint_linear_104_11427_0)" stroke-opacity="1.000000" stroke-width="1.000000"/>
	<rect id="Container" rx="30.500000" width="61.000000" height="61.000000" transform="translate(10.500000 10.500000)" stroke="url(#paint_linear_104_11427_1)" stroke-opacity="1.000000" stroke-width="1.000000"/>
	<rect id="Icon Container" rx="40.500000" width="81.000000" height="81.000000" transform="translate(0.500000 0.500000)" stroke="url(#paint_linear_104_11426_0)" stroke-opacity="1.000000" stroke-width="1.000000"/>
	<rect id="Icon Container" rx="40.500000" width="81.000000" height="81.000000" transform="translate(0.500000 0.500000)" stroke="url(#paint_linear_104_11426_1)" stroke-opacity="1.000000" stroke-width="1.000000"/>
</svg>
