<svg width="82.000000" height="82.000000" viewBox="0 0 82 82" fill="none" xmlns="http://www.w3.org/2000/svg" xmlns:xlink="http://www.w3.org/1999/xlink">
	<desc>
			Created with Pixso.
	</desc>
	<defs>
		<clipPath id="clip104_13280">
			<rect id="Icon" width="34.000000" height="34.000000" transform="translate(23.500000 24.000000)" fill="white" fill-opacity="0"/>
		</clipPath>
		<linearGradient id="paint_linear_104_13261_0" x1="6.250008" y1="86.499977" x2="85.250023" y2="-5.499985" gradientUnits="userSpaceOnUse">
			<stop stop-color="#A685FA"/>
			<stop offset="0.323723" stop-color="#A685FA" stop-opacity="0.000000"/>
		</linearGradient>
		<linearGradient id="paint_linear_104_13261_1" x1="81.250000" y1="-10.500015" x2="6.250031" y2="82.000008" gradientUnits="userSpaceOnUse">
			<stop stop-color="#A685FA"/>
			<stop offset="0.576615" stop-color="#A685FA" stop-opacity="0.000000"/>
		</linearGradient>
		<linearGradient id="paint_linear_104_13262_0" x1="2.750000" y1="13.500000" x2="71.250000" y2="72.000000" gradientUnits="userSpaceOnUse">
			<stop stop-color="#A685FA"/>
			<stop offset="0.323723" stop-color="#A685FA" stop-opacity="0.000000"/>
		</linearGradient>
		<linearGradient id="paint_linear_104_13262_1" x1="83.750000" y1="86.000015" x2="11.749989" y2="35.000031" gradientUnits="userSpaceOnUse">
			<stop stop-color="#A685FA"/>
			<stop offset="0.576615" stop-color="#A685FA" stop-opacity="0.000000"/>
		</linearGradient>
	</defs>
	<g clip-path="url(#clip104_13280)">
		<path id="Vector" d="M40.5 55C32.76 55 26.5 48.73 26.5 41L40.5 41L40.5 55Z" fill="#A685FA" fill-opacity="1.000000" fill-rule="evenodd"/>
		<path id="Vector" d="M26.5 27C34.23 27 40.5 33.26 40.5 41L26.5 41L26.5 27Z" fill="#A685FA" fill-opacity="1.000000" fill-rule="evenodd"/>
		<path id="Vector" d="M40.5 55C48.23 55 54.5 48.73 54.5 41L40.5 41L40.5 55Z" fill="#A685FA" fill-opacity="1.000000" fill-rule="evenodd"/>
		<path id="Vector" d="M54.5 41C54.5 33.26 48.23 27 40.5 27L40.5 41L54.5 41Z" fill="#A685FA" fill-opacity="1.000000" fill-rule="evenodd"/>
	</g>
	<rect id="Container" rx="30.500000" width="61.000000" height="61.000000" transform="translate(10.000000 10.500000)" stroke="url(#paint_linear_104_13262_0)" stroke-opacity="1.000000" stroke-width="1.000000"/>
	<rect id="Container" rx="30.500000" width="61.000000" height="61.000000" transform="translate(10.000000 10.500000)" stroke="url(#paint_linear_104_13262_1)" stroke-opacity="1.000000" stroke-width="1.000000"/>
	<rect id="Icon Container" rx="40.500000" width="81.000000" height="81.000000" transform="translate(0.000000 0.500000)" stroke="url(#paint_linear_104_13261_0)" stroke-opacity="1.000000" stroke-width="1.000000"/>
	<rect id="Icon Container" rx="40.500000" width="81.000000" height="81.000000" transform="translate(0.000000 0.500000)" stroke="url(#paint_linear_104_13261_1)" stroke-opacity="1.000000" stroke-width="1.000000"/>
</svg>
