<svg width="82.000000" height="82.000000" viewBox="0 0 82 82" fill="none" xmlns="http://www.w3.org/2000/svg" xmlns:xlink="http://www.w3.org/1999/xlink">
	<desc>
			Created with Pixso.
	</desc>
	<defs>
		<clipPath id="clip104_13312">
			<rect id="Icon" width="34.000000" height="34.000000" transform="translate(23.500000 24.000000)" fill="white" fill-opacity="0"/>
		</clipPath>
		<linearGradient id="paint_linear_104_12854_0" x1="6.250008" y1="86.499977" x2="85.250023" y2="-5.499985" gradientUnits="userSpaceOnUse">
			<stop stop-color="#A685FA"/>
			<stop offset="0.323723" stop-color="#A685FA" stop-opacity="0.000000"/>
		</linearGradient>
		<linearGradient id="paint_linear_104_12854_1" x1="81.250000" y1="-10.500015" x2="6.250031" y2="82.000008" gradientUnits="userSpaceOnUse">
			<stop stop-color="#A685FA"/>
			<stop offset="0.576615" stop-color="#A685FA" stop-opacity="0.000000"/>
		</linearGradient>
		<linearGradient id="paint_linear_104_12855_0" x1="2.750000" y1="13.500000" x2="71.250000" y2="72.000000" gradientUnits="userSpaceOnUse">
			<stop stop-color="#A685FA"/>
			<stop offset="0.323723" stop-color="#A685FA" stop-opacity="0.000000"/>
		</linearGradient>
		<linearGradient id="paint_linear_104_12855_1" x1="83.750000" y1="86.000015" x2="11.749989" y2="35.000031" gradientUnits="userSpaceOnUse">
			<stop stop-color="#A685FA"/>
			<stop offset="0.576615" stop-color="#A685FA" stop-opacity="0.000000"/>
		</linearGradient>
	</defs>
	<g clip-path="url(#clip104_13312)">
		<path id="Subtract" d="M39.84 55.66C39.89 55.68 39.92 55.7 39.94 55.72L39.98 55.74C40.3 55.91 40.69 55.91 41.01 55.74L41.05 55.72C41.07 55.7 41.1 55.68 41.15 55.66C41.23 55.61 41.35 55.54 41.51 55.44C41.82 55.25 42.25 54.97 42.77 54.61C43.8 53.88 45.18 52.79 46.57 51.38C49.32 48.56 52.18 44.32 52.18 38.87C52.18 32.42 46.95 27.18 40.5 27.18C34.04 27.18 28.81 32.42 28.81 38.87C28.81 44.32 31.67 48.56 34.42 51.38C35.81 52.79 37.19 53.88 38.22 54.61C38.74 54.97 39.17 55.25 39.48 55.44C39.64 55.54 39.76 55.61 39.84 55.66ZM40.5 43.12C42.84 43.12 44.75 41.22 44.75 38.87C44.75 36.52 42.84 34.62 40.5 34.62C38.15 34.62 36.25 36.52 36.25 38.87C36.25 41.22 38.15 43.12 40.5 43.12Z" fill="#A685FA" fill-opacity="1.000000" fill-rule="evenodd"/>
	</g>
	<rect id="Container" rx="30.500000" width="61.000000" height="61.000000" transform="translate(10.000000 10.500000)" stroke="url(#paint_linear_104_12855_0)" stroke-opacity="1.000000" stroke-width="1.000000"/>
	<rect id="Container" rx="30.500000" width="61.000000" height="61.000000" transform="translate(10.000000 10.500000)" stroke="url(#paint_linear_104_12855_1)" stroke-opacity="1.000000" stroke-width="1.000000"/>
	<rect id="Icon Container" rx="40.500000" width="81.000000" height="81.000000" transform="translate(0.000000 0.500000)" stroke="url(#paint_linear_104_12854_0)" stroke-opacity="1.000000" stroke-width="1.000000"/>
	<rect id="Icon Container" rx="40.500000" width="81.000000" height="81.000000" transform="translate(0.000000 0.500000)" stroke="url(#paint_linear_104_12854_1)" stroke-opacity="1.000000" stroke-width="1.000000"/>
</svg>
