<svg width="82.000000" height="82.000000" viewBox="0 0 82 82" fill="none" xmlns="http://www.w3.org/2000/svg" xmlns:xlink="http://www.w3.org/1999/xlink">
	<desc>
			Created with Pixso.
	</desc>
	<defs>
		<clipPath id="clip122_1933">
			<rect id="Icon" width="34.000000" height="34.000000" transform="translate(23.500000 24.000000)" fill="white" fill-opacity="0"/>
		</clipPath>
		<linearGradient id="paint_linear_121_1916_0" x1="6.250008" y1="86.499977" x2="85.250023" y2="-5.499985" gradientUnits="userSpaceOnUse">
			<stop stop-color="#A685FA"/>
			<stop offset="0.323723" stop-color="#A685FA" stop-opacity="0.000000"/>
		</linearGradient>
		<linearGradient id="paint_linear_121_1916_1" x1="81.250000" y1="-10.500015" x2="6.250031" y2="82.000008" gradientUnits="userSpaceOnUse">
			<stop stop-color="#A685FA"/>
			<stop offset="0.576615" stop-color="#A685FA" stop-opacity="0.000000"/>
		</linearGradient>
		<linearGradient id="paint_linear_121_1917_0" x1="2.750000" y1="13.500000" x2="71.250000" y2="72.000000" gradientUnits="userSpaceOnUse">
			<stop stop-color="#A685FA"/>
			<stop offset="0.323723" stop-color="#A685FA" stop-opacity="0.000000"/>
		</linearGradient>
		<linearGradient id="paint_linear_121_1917_1" x1="83.750000" y1="86.000015" x2="11.749989" y2="35.000031" gradientUnits="userSpaceOnUse">
			<stop stop-color="#A685FA"/>
			<stop offset="0.576615" stop-color="#A685FA" stop-opacity="0.000000"/>
		</linearGradient>
	</defs>
	<g clip-path="url(#clip122_1933)">
		<path id="Union" d="M40.5 27.18C41.08 27.18 41.56 27.66 41.56 28.25L41.56 31.43C41.56 32.02 41.08 32.5 40.5 32.5C39.91 32.5 39.43 32.02 39.43 31.43L39.43 28.25C39.43 27.66 39.91 27.18 40.5 27.18ZM34.48 34.98C34.07 35.4 33.4 35.4 32.98 34.98L30.73 32.73C30.52 32.52 30.42 32.25 30.42 31.98C30.42 31.71 30.52 31.44 30.73 31.23C31.14 30.81 31.82 30.81 32.23 31.23L34.48 33.48C34.69 33.69 34.8 33.96 34.8 34.23C34.8 34.51 34.69 34.78 34.48 34.98ZM50.57 31.98C50.57 32.25 50.47 32.52 50.26 32.73L48.01 34.98C47.59 35.4 46.92 35.4 46.51 34.98C46.3 34.78 46.19 34.51 46.19 34.23C46.19 33.96 46.3 33.69 46.51 33.48L48.76 31.23C49.17 30.81 49.85 30.81 50.26 31.23C50.47 31.44 50.57 31.71 50.57 31.98ZM34.12 41C34.12 37.47 36.97 34.62 40.5 34.62C44.02 34.62 46.87 37.47 46.87 41C46.87 44.52 44.02 47.37 40.5 47.37C36.97 47.37 34.12 44.52 34.12 41ZM32 41C32 41.58 31.52 42.06 30.93 42.06L27.75 42.06C27.16 42.06 26.68 41.58 26.68 41C26.68 40.41 27.16 39.93 27.75 39.93L30.93 39.93C31.52 39.93 32 40.41 32 41ZM54.31 41C54.31 41.58 53.83 42.06 53.25 42.06L50.06 42.06C49.47 42.06 49 41.58 49 41C49 40.41 49.47 39.93 50.06 39.93L53.25 39.93C53.83 39.93 54.31 40.41 54.31 41ZM50.26 50.76C49.85 51.18 49.17 51.18 48.76 50.76L46.51 48.51C46.3 48.3 46.19 48.03 46.19 47.76C46.19 47.48 46.3 47.21 46.51 47.01C46.92 46.59 47.59 46.59 48.01 47.01L50.26 49.26C50.47 49.47 50.57 49.74 50.57 50.01C50.57 50.28 50.47 50.55 50.26 50.76ZM34.8 47.76C34.8 48.03 34.69 48.3 34.48 48.51L32.23 50.76C31.82 51.18 31.14 51.18 30.73 50.76C30.52 50.55 30.42 50.28 30.42 50.01C30.42 49.74 30.52 49.47 30.73 49.26L32.98 47.01C33.4 46.59 34.07 46.59 34.48 47.01C34.69 47.21 34.8 47.48 34.8 47.76ZM40.5 49.5C41.08 49.5 41.56 49.97 41.56 50.56L41.56 53.75C41.56 54.33 41.08 54.81 40.5 54.81C39.91 54.81 39.43 54.33 39.43 53.75L39.43 50.56C39.43 49.97 39.91 49.5 40.5 49.5Z" fill="#A685FA" fill-opacity="1.000000" fill-rule="evenodd"/>
	</g>
	<rect id="Container" rx="30.500000" width="61.000000" height="61.000000" transform="translate(10.000000 10.500000)" stroke="url(#paint_linear_121_1917_0)" stroke-opacity="1.000000" stroke-width="1.000000"/>
	<rect id="Container" rx="30.500000" width="61.000000" height="61.000000" transform="translate(10.000000 10.500000)" stroke="url(#paint_linear_121_1917_1)" stroke-opacity="1.000000" stroke-width="1.000000"/>
	<rect id="Icon Container" rx="40.500000" width="81.000000" height="81.000000" transform="translate(0.000000 0.500000)" stroke="url(#paint_linear_121_1916_0)" stroke-opacity="1.000000" stroke-width="1.000000"/>
	<rect id="Icon Container" rx="40.500000" width="81.000000" height="81.000000" transform="translate(0.000000 0.500000)" stroke="url(#paint_linear_121_1916_1)" stroke-opacity="1.000000" stroke-width="1.000000"/>
</svg>
