<svg width="21.000000" height="21.000000" viewBox="0 0 21 21" fill="none" xmlns="http://www.w3.org/2000/svg" xmlns:xlink="http://www.w3.org/1999/xlink">
	<desc>
			Created with Pixso.
	</desc>
	<defs/>
	<path id="Shape" d="M9.15 0.3L6.11 5.04C5.98 5.25 5.77 5.4 5.53 5.46L0.09 6.89C-0.62 7.08 -0.89 7.93 -0.43 8.49L3.13 12.84C3.29 13.04 3.37 13.28 3.35 13.53L3.03 19.15C2.99 19.88 3.71 20.4 4.39 20.14L9.63 18.1C9.87 18.01 10.12 18.01 10.36 18.1L15.6 20.14C16.28 20.4 17 19.88 16.96 19.15L16.64 13.53C16.62 13.28 16.7 13.04 16.86 12.84L20.42 8.49C20.88 7.93 20.61 7.08 19.9 6.89L14.46 5.46C14.22 5.4 14.01 5.25 13.88 5.04L10.84 0.3C10.44 -0.31 9.55 -0.31 9.15 0.3Z" fill="#FFE600" fill-opacity="1.000000" fill-rule="evenodd"/>
</svg>
