<svg width="24.000000" height="24.000000" viewBox="0 0 24 24" fill="none" xmlns="http://www.w3.org/2000/svg" xmlns:xlink="http://www.w3.org/1999/xlink">
	<desc>
			Created with Pixso.
	</desc>
	<defs>
		<clipPath id="clip97_8270">
			<rect id="Icon" width="24.000000" height="24.000000" fill="white" fill-opacity="0"/>
		</clipPath>
	</defs>
	<g clip-path="url(#clip97_8270)">
		<path id="Subtract" d="M11.53 22.35C11.57 22.36 11.59 22.38 11.61 22.39L11.63 22.4C11.86 22.52 12.13 22.52 12.36 22.4L12.38 22.39C12.4 22.38 12.42 22.36 12.46 22.35C12.52 22.31 12.6 22.26 12.71 22.19C12.93 22.06 13.23 21.86 13.6 21.6C14.33 21.09 15.31 20.32 16.28 19.32C18.23 17.33 20.25 14.34 20.25 10.5C20.25 5.94 16.55 2.25 12 2.25C7.44 2.25 3.75 5.94 3.75 10.5C3.75 14.34 5.76 17.33 7.71 19.32C8.68 20.32 9.66 21.09 10.39 21.6C10.76 21.86 11.06 22.06 11.28 22.19C11.39 22.26 11.47 22.31 11.53 22.35ZM12 13.5C13.65 13.5 15 12.15 15 10.5C15 8.84 13.65 7.5 12 7.5C10.34 7.5 9 8.84 9 10.5C9 12.15 10.34 13.5 12 13.5Z" fill="#999999" fill-opacity="1.000000" fill-rule="evenodd"/>
	</g>
</svg>
