<svg width="160.000000" height="48.000000" viewBox="0 0 160 48" fill="none" xmlns="http://www.w3.org/2000/svg" xmlns:xlink="http://www.w3.org/1999/xlink">
	<defs/>
	<path id="Vector" d="M23.33 48C10.08 48 -0.67 37.25 -0.67 24L23.33 24L23.33 48Z" fill="#703BF7" fill-opacity="1.000000" fill-rule="evenodd"/>
	<path id="Vector" d="M-0.67 0C12.58 0 23.33 10.74 23.33 24L-0.67 24L-0.67 0Z" fill="#703BF7" fill-opacity="1.000000" fill-rule="evenodd"/>
	<path id="Vector" d="M23.33 48C36.58 48 47.33 37.25 47.33 24L23.33 24L23.33 48Z" fill="#703BF7" fill-opacity="1.000000" fill-rule="evenodd"/>
	<path id="Vector" d="M47.33 24C47.33 10.74 36.58 0 23.33 0L23.33 24L47.33 24Z" fill="#703BF7" fill-opacity="1.000000" fill-rule="evenodd"/>
	<path id="Vector" d="M156.15 34.86L156.15 26.85C156.15 25.92 155.85 25.16 155.25 24.57C154.67 23.97 153.92 23.67 153 23.67C152.38 23.67 151.83 23.8 151.35 24.07C150.87 24.34 150.49 24.72 150.22 25.2C149.95 25.68 149.82 26.23 149.82 26.85L148.58 26.15C148.58 25.1 148.81 24.16 149.27 23.35C149.73 22.52 150.37 21.88 151.18 21.41C152.01 20.93 152.93 20.69 153.95 20.69C154.99 20.69 155.92 20.96 156.73 21.5C157.54 22.02 158.17 22.71 158.64 23.55C159.1 24.38 159.33 25.25 159.33 26.15L159.33 34.86L156.15 34.86ZM146.64 34.86L146.64 20.98L149.82 20.98L149.82 34.86L146.64 34.86Z" fill="#FFFFFF" fill-opacity="1.000000" fill-rule="evenodd"/>
	<path id="Vector" d="M139.89 34.86L139.89 20.98L143.07 20.98L143.07 34.86L139.89 34.86ZM141.48 18.44C140.94 18.44 140.49 18.25 140.12 17.89C139.78 17.52 139.6 17.07 139.6 16.53C139.6 15.99 139.78 15.54 140.12 15.17C140.49 14.8 140.94 14.62 141.48 14.62C142.04 14.62 142.5 14.8 142.84 15.17C143.19 15.54 143.36 15.99 143.36 16.53C143.36 17.07 143.19 17.52 142.84 17.89C142.5 18.25 142.04 18.44 141.48 18.44Z" fill="#FFFFFF" fill-opacity="1.000000" fill-rule="evenodd"/>
	<path id="Vector" d="M130.87 35.14C129.48 35.14 128.23 34.84 127.11 34.22C126.01 33.58 125.14 32.72 124.48 31.62C123.85 30.52 123.53 29.29 123.53 27.92C123.53 26.55 123.85 25.33 124.48 24.25C125.12 23.15 125.98 22.28 127.05 21.65C128.15 21.01 129.37 20.69 130.7 20.69C131.99 20.69 133.12 20.99 134.11 21.59C135.11 22.19 135.89 23 136.45 24.04C137.03 25.09 137.32 26.27 137.32 27.6C137.32 27.83 137.3 28.07 137.26 28.32C137.24 28.55 137.2 28.81 137.14 29.1L125.75 29.1L125.75 26.5L135.49 26.5L134.31 27.54C134.27 26.69 134.11 25.98 133.82 25.4C133.53 24.83 133.11 24.38 132.58 24.07C132.06 23.77 131.41 23.61 130.64 23.61C129.83 23.61 129.13 23.78 128.53 24.13C127.93 24.48 127.47 24.97 127.14 25.61C126.81 26.22 126.65 26.96 126.65 27.83C126.65 28.7 126.82 29.46 127.17 30.11C127.52 30.77 128.01 31.28 128.64 31.65C129.28 31.99 130.01 32.17 130.84 32.17C131.55 32.17 132.21 32.04 132.81 31.79C133.42 31.54 133.94 31.17 134.37 30.69L136.39 32.75C135.72 33.54 134.9 34.13 133.93 34.54C132.97 34.94 131.95 35.14 130.87 35.14Z" fill="#FFFFFF" fill-opacity="1.000000" fill-rule="evenodd"/>
	<path id="Vector" d="M116.01 34.86L116.01 15.2L119.19 15.2L119.19 34.86L116.01 34.86ZM112.68 23.87L112.68 20.98L122.51 20.98L122.51 23.87L112.68 23.87Z" fill="#FFFFFF" fill-opacity="1.000000" fill-rule="evenodd"/>
	<path id="Vector" d="M102.94 35.14C101.69 35.14 100.55 34.83 99.53 34.19C98.52 33.55 97.73 32.7 97.13 31.62C96.55 30.52 96.26 29.3 96.26 27.95C96.26 26.58 96.55 25.36 97.13 24.28C97.73 23.18 98.52 22.31 99.53 21.67C100.55 21.02 101.69 20.69 102.94 20.69C104 20.69 104.93 20.92 105.74 21.39C106.57 21.83 107.23 22.45 107.71 23.24C108.19 24.03 108.43 24.92 108.43 25.92L108.43 29.91C108.43 30.91 108.19 31.81 107.71 32.6C107.24 33.39 106.6 34.02 105.77 34.48C104.94 34.92 104 35.14 102.94 35.14ZM103.46 32.14C104.63 32.14 105.58 31.74 106.29 30.95C107.02 30.16 107.39 29.15 107.39 27.92C107.39 27.09 107.23 26.36 106.9 25.72C106.57 25.09 106.11 24.59 105.51 24.25C104.93 23.88 104.25 23.7 103.46 23.7C102.69 23.7 102 23.88 101.41 24.25C100.83 24.59 100.37 25.09 100.02 25.72C99.69 26.36 99.53 27.09 99.53 27.92C99.53 28.75 99.69 29.48 100.02 30.11C100.37 30.75 100.83 31.25 101.41 31.62C102 31.96 102.69 32.14 103.46 32.14ZM107.19 34.86L107.19 31.13L107.74 27.74L107.19 24.39L107.19 20.98L110.37 20.98L110.37 34.86L107.19 34.86Z" fill="#FFFFFF" fill-opacity="1.000000" fill-rule="evenodd"/>
	<path id="Vector" d="M88.71 34.86L88.71 15.2L91.89 15.2L91.89 34.86L88.71 34.86ZM85.38 23.87L85.38 20.98L95.21 20.98L95.21 23.87L85.38 23.87Z" fill="#FFFFFF" fill-opacity="1.000000" fill-rule="evenodd"/>
	<path id="Vector" d="M78.72 35.14C77.95 35.14 77.2 35.05 76.49 34.86C75.78 34.64 75.12 34.35 74.52 33.99C73.93 33.6 73.41 33.14 72.96 32.6L74.99 30.58C75.47 31.14 76.02 31.56 76.64 31.85C77.27 32.12 77.98 32.25 78.77 32.25C79.49 32.25 80.03 32.15 80.39 31.94C80.76 31.72 80.94 31.42 80.94 31.01C80.94 30.59 80.77 30.26 80.42 30.03C80.07 29.8 79.62 29.6 79.06 29.45C78.52 29.28 77.95 29.1 77.33 28.93C76.73 28.76 76.15 28.53 75.59 28.24C75.05 27.93 74.61 27.51 74.26 26.99C73.92 26.47 73.74 25.8 73.74 24.97C73.74 24.08 73.95 23.32 74.35 22.69C74.78 22.05 75.36 21.56 76.11 21.21C76.89 20.87 77.8 20.69 78.86 20.69C79.98 20.69 80.96 20.89 81.81 21.3C82.68 21.68 83.4 22.27 83.98 23.06L81.95 25.09C81.55 24.58 81.09 24.21 80.57 23.96C80.05 23.71 79.45 23.58 78.77 23.58C78.14 23.58 77.65 23.68 77.3 23.87C76.95 24.06 76.78 24.34 76.78 24.71C76.78 25.1 76.95 25.39 77.3 25.61C77.65 25.82 78.09 26 78.63 26.15C79.19 26.31 79.77 26.48 80.36 26.68C80.98 26.85 81.56 27.1 82.1 27.43C82.66 27.74 83.11 28.16 83.46 28.7C83.8 29.22 83.98 29.9 83.98 30.75C83.98 32.1 83.5 33.17 82.56 33.96C81.62 34.75 80.33 35.14 78.72 35.14Z" fill="#FFFFFF" fill-opacity="1.000000" fill-rule="evenodd"/>
	<path id="Vector" d="M57.56 34.86L57.56 14.62L60.89 14.62L60.89 34.86L57.56 34.86ZM59.85 34.86L59.85 31.82L71.18 31.82L71.18 34.86L59.85 34.86ZM59.85 25.98L59.85 23.06L70.19 23.06L70.19 25.98L59.85 25.98ZM59.85 17.66L59.85 14.62L71.03 14.62L71.03 17.66L59.85 17.66Z" fill="#FFFFFF" fill-opacity="1.000000" fill-rule="evenodd"/>
</svg>
