<svg width="34.000000" height="34.000000" viewBox="0 0 34 34" fill="none" xmlns="http://www.w3.org/2000/svg" xmlns:xlink="http://www.w3.org/1999/xlink">
	<desc>
			Created with Pixso.
	</desc>
	<defs>
		<clipPath id="clip122_2075">
			<rect id="Icon" width="34.000000" height="34.000000" transform="translate(-0.500000 0.000000)" fill="white" fill-opacity="0"/>
		</clipPath>
	</defs>
	<g clip-path="url(#clip122_2075)">
		<path id="Union" d="M16.07 3.97C16.34 3.85 16.65 3.85 16.92 3.97C22.19 6.27 27.18 9.08 31.84 12.35C32.17 12.58 32.34 12.99 32.27 13.4C32.2 13.8 31.91 14.13 31.51 14.24C30.54 14.51 29.58 14.8 28.62 15.11C24.76 16.35 21.03 17.92 17.48 19.78L17.48 19.79C17.32 19.87 17.16 19.96 17 20.04C16.68 20.21 16.31 20.21 16 20.04C15.83 19.95 15.67 19.87 15.51 19.78C13.75 18.86 11.96 18.02 10.12 17.24L10.12 16.92C10.12 16.74 10.22 16.57 10.36 16.48C12.5 15.19 14.7 14 16.95 12.91C17.48 12.66 17.71 12.03 17.45 11.5C17.2 10.97 16.56 10.74 16.04 11C13.71 12.11 11.45 13.34 9.26 14.67C8.62 15.06 8.19 15.69 8.05 16.41C6.83 15.94 5.61 15.51 4.37 15.11C3.41 14.8 2.45 14.51 1.48 14.24C1.08 14.13 0.79 13.8 0.72 13.4C0.65 12.99 0.82 12.58 1.15 12.35C5.81 9.08 10.8 6.27 16.07 3.97ZM18 21.92C21.45 20.07 25.08 18.51 28.86 17.27C29.05 19.27 29.17 21.29 29.22 23.34C29.23 23.77 28.97 24.17 28.57 24.34C24.53 26.03 20.69 28.09 17.08 30.49C16.73 30.73 16.26 30.73 15.91 30.49C13.74 29.05 11.48 27.72 9.14 26.53C8.69 27.45 8.08 28.31 7.32 29.07C6.9 29.48 6.23 29.48 5.82 29.07C5.4 28.65 5.4 27.98 5.82 27.57C6.41 26.97 6.88 26.3 7.23 25.59C6.31 25.15 5.37 24.74 4.42 24.34C4.02 24.17 3.76 23.77 3.77 23.34C3.82 21.29 3.94 19.27 4.13 17.26C5.44 17.69 6.73 18.16 8 18.67L8 20.47C7.36 20.83 6.93 21.52 6.93 22.31C6.93 23.01 7.27 23.63 7.8 24.02C7.67 24.56 7.48 25.09 7.23 25.59C7.88 25.89 8.51 26.21 9.14 26.53C9.5 25.8 9.76 25.03 9.92 24.25C10.66 23.92 11.18 23.17 11.18 22.31C11.18 21.52 10.76 20.83 10.12 20.47L10.12 19.55C11.78 20.28 13.41 21.07 14.99 21.92C15.93 22.42 17.06 22.42 18 21.92Z" fill="#A685FA" fill-opacity="1.000000" fill-rule="evenodd"/>
	</g>
</svg>
