<svg width="34.000000" height="34.000000" viewBox="0 0 34 34" fill="none" xmlns="http://www.w3.org/2000/svg" xmlns:xlink="http://www.w3.org/1999/xlink">
	<desc>
			Created with Pixso.
	</desc>
	<defs>
		<clipPath id="clip181_3299">
			<rect id="Icon" width="34.000000" height="34.000000" fill="white" fill-opacity="0"/>
		</clipPath>
	</defs>
	<g clip-path="url(#clip181_3299)">
		<path id="Vector" d="M17 4.25C14.06 4.25 11.68 6.62 11.68 9.56C11.68 12.49 14.06 14.87 17 14.87C19.93 14.87 22.31 12.49 22.31 9.56C22.31 6.62 19.93 4.25 17 4.25ZM3.18 13.81C3.18 11.46 5.08 9.56 7.43 9.56C9.78 9.56 11.68 11.46 11.68 13.81C11.68 16.15 9.78 18.06 7.43 18.06C5.08 18.06 3.18 16.15 3.18 13.81ZM26.56 9.56C24.21 9.56 22.31 11.46 22.31 13.81C22.31 16.15 24.21 18.06 26.56 18.06C28.91 18.06 30.81 16.15 30.81 13.81C30.81 11.46 28.91 9.56 26.56 9.56ZM17 17C13.61 17 10.63 18.76 8.93 21.41C7.76 23.25 7.25 25.46 7.49 27.62C7.53 27.95 7.72 28.25 8.02 28.42C10.66 29.94 13.73 30.81 17 30.81C20.26 30.81 23.33 29.94 25.97 28.42C26.27 28.25 26.46 27.95 26.5 27.62C26.74 25.46 26.23 23.25 25.06 21.41C23.36 18.76 20.38 17 17 17ZM7.2 20.19C7.18 20.21 7.16 20.24 7.14 20.27C5.78 22.41 5.15 24.95 5.34 27.46C4.48 27.33 3.65 27.12 2.84 26.84L2.68 26.78C2.38 26.68 2.18 26.41 2.15 26.09L2.14 25.92C2.13 25.78 2.12 25.64 2.12 25.5C2.12 22.64 4.37 20.31 7.2 20.19ZM26.85 20.27C28.21 22.41 28.84 24.95 28.65 27.46C29.51 27.33 30.34 27.12 31.15 26.84L31.31 26.78C31.61 26.68 31.81 26.41 31.84 26.09L31.85 25.92C31.86 25.78 31.87 25.64 31.87 25.5C31.87 22.64 29.62 20.31 26.8 20.19C26.81 20.21 26.83 20.24 26.85 20.27Z" fill="#A685FA" fill-opacity="1.000000" fill-rule="evenodd"/>
	</g>
</svg>
