<svg width="24.000000" height="24.000000" viewBox="0 0 24 24" fill="none" xmlns="http://www.w3.org/2000/svg" xmlns:xlink="http://www.w3.org/1999/xlink">
	<desc>
			Created with Pixso.
	</desc>
	<defs>
		<clipPath id="clip104_13605">
			<rect id="Icon" width="24.000000" height="24.000000" fill="white" fill-opacity="0"/>
		</clipPath>
	</defs>
	<g clip-path="url(#clip104_13605)">
		<path id="Vector (Stroke)" d="M1.5 4.5C1.5 2.84 2.84 1.5 4.5 1.5L5.87 1.5C6.73 1.5 7.48 2.08 7.69 2.92L8.79 7.34C8.98 8.07 8.7 8.84 8.1 9.29L6.8 10.26C6.67 10.36 6.64 10.51 6.68 10.61C7.82 13.71 10.28 16.18 13.37 17.31C13.48 17.35 13.62 17.32 13.73 17.19L14.7 15.89C15.15 15.29 15.92 15.02 16.65 15.2L21.07 16.3C21.91 16.51 22.5 17.26 22.5 18.12L22.5 19.5C22.5 21.15 21.15 22.5 19.5 22.5L17.25 22.5C8.55 22.5 1.5 15.44 1.5 6.75L1.5 4.5Z" fill="#FFFFFF" fill-opacity="1.000000" fill-rule="evenodd"/>
	</g>
</svg>
