<svg width="24.000000" height="24.000000" viewBox="0 0 24 24" fill="none" xmlns="http://www.w3.org/2000/svg" xmlns:xlink="http://www.w3.org/1999/xlink">
	<desc>
			Created with Pixso.
	</desc>
	<defs>
		<clipPath id="clip104_13601">
			<rect id="Icon" width="24.000000" height="24.000000" fill="white" fill-opacity="0"/>
		</clipPath>
	</defs>
	<g clip-path="url(#clip104_13601)">
		<path id="Subtract" d="M22.5 6.75L22.5 6.9L12.78 12.88C12.3 13.18 11.69 13.18 11.21 12.88L1.5 6.9L1.5 6.75C1.5 5.09 2.84 3.75 4.5 3.75L19.5 3.75C21.15 3.75 22.5 5.09 22.5 6.75ZM1.5 17.25L1.5 8.66L10.42 14.16C11.39 14.75 12.6 14.75 13.57 14.16L22.5 8.66L22.5 17.25C22.5 18.9 21.15 20.25 19.5 20.25L4.5 20.25C2.84 20.25 1.5 18.9 1.5 17.25Z" fill="#FFFFFF" fill-opacity="1.000000" fill-rule="evenodd"/>
	</g>
</svg>
