<svg width="82.000000" height="82.000000" viewBox="0 0 82 82" fill="none" xmlns="http://www.w3.org/2000/svg" xmlns:xlink="http://www.w3.org/1999/xlink">
	<desc>
			Created with Pixso.
	</desc>
	<defs>
		<clipPath id="clip122_2111">
			<rect id="Icon" width="34.000000" height="34.000000" transform="translate(24.000000 24.000000)" fill="white" fill-opacity="0"/>
		</clipPath>
		<linearGradient id="paint_linear_104_11609_0" x1="6.750008" y1="86.499977" x2="85.750023" y2="-5.499985" gradientUnits="userSpaceOnUse">
			<stop stop-color="#A685FA"/>
			<stop offset="0.323723" stop-color="#A685FA" stop-opacity="0.000000"/>
		</linearGradient>
		<linearGradient id="paint_linear_104_11609_1" x1="81.750000" y1="-10.500015" x2="6.750031" y2="82.000008" gradientUnits="userSpaceOnUse">
			<stop stop-color="#A685FA"/>
			<stop offset="0.576615" stop-color="#A685FA" stop-opacity="0.000000"/>
		</linearGradient>
		<linearGradient id="paint_linear_104_11610_0" x1="3.250000" y1="13.500000" x2="71.750000" y2="72.000000" gradientUnits="userSpaceOnUse">
			<stop stop-color="#A685FA"/>
			<stop offset="0.323723" stop-color="#A685FA" stop-opacity="0.000000"/>
		</linearGradient>
		<linearGradient id="paint_linear_104_11610_1" x1="84.250000" y1="86.000015" x2="12.249989" y2="35.000031" gradientUnits="userSpaceOnUse">
			<stop stop-color="#A685FA"/>
			<stop offset="0.576615" stop-color="#A685FA" stop-opacity="0.000000"/>
		</linearGradient>
	</defs>
	<g clip-path="url(#clip122_2111)">
		<path id="Subtract" d="M27.18 29.84C27.18 28.37 28.37 27.18 29.84 27.18L37.28 27.18C38.75 27.18 39.93 28.37 39.93 29.84L39.93 48.43C39.93 51.95 37.08 54.81 33.56 54.81C30.04 54.81 27.18 51.95 27.18 48.43L27.18 29.84ZM51.21 39.79L42.04 48.96C42.05 48.79 42.06 48.61 42.06 48.43L42.06 30.92L42.2 30.78C43.23 29.74 44.92 29.74 45.95 30.78L51.21 36.04C52.25 37.07 52.25 38.76 51.21 39.79ZM39.18 54.81L52.15 54.81C53.62 54.81 54.81 53.62 54.81 52.15L54.81 44.71C54.81 43.25 53.62 42.06 52.15 42.06L51.95 42.06L39.57 54.44C39.44 54.57 39.31 54.69 39.18 54.81ZM33.56 50.03C34.44 50.03 35.15 49.31 35.15 48.43C35.15 47.55 34.44 46.84 33.56 46.84C32.68 46.84 31.96 47.55 31.96 48.43C31.96 49.31 32.68 50.03 33.56 50.03Z" fill="#A685FA" fill-opacity="1.000000" fill-rule="evenodd"/>
	</g>
	<rect id="Container" rx="30.500000" width="61.000000" height="61.000000" transform="translate(10.500000 10.500000)" stroke="url(#paint_linear_104_11610_0)" stroke-opacity="1.000000" stroke-width="1.000000"/>
	<rect id="Container" rx="30.500000" width="61.000000" height="61.000000" transform="translate(10.500000 10.500000)" stroke="url(#paint_linear_104_11610_1)" stroke-opacity="1.000000" stroke-width="1.000000"/>
	<rect id="Icon Container" rx="40.500000" width="81.000000" height="81.000000" transform="translate(0.500000 0.500000)" stroke="url(#paint_linear_104_11609_0)" stroke-opacity="1.000000" stroke-width="1.000000"/>
	<rect id="Icon Container" rx="40.500000" width="81.000000" height="81.000000" transform="translate(0.500000 0.500000)" stroke="url(#paint_linear_104_11609_1)" stroke-opacity="1.000000" stroke-width="1.000000"/>
</svg>
