<svg width="114.000000" height="34.000000" viewBox="0 0 114 34" fill="none" xmlns="http://www.w3.org/2000/svg" xmlns:xlink="http://www.w3.org/1999/xlink">
	<desc>
			Created with Pixso.
	</desc>
	<defs/>
	<path id="Vector" d="M17 33.5C7.61 33.5 0 25.88 0 16.5L17 16.5L17 33.5Z" fill="#703BF7" fill-opacity="1.000000" fill-rule="evenodd"/>
	<path id="Vector" d="M0 -0.5C9.38 -0.5 17 7.11 17 16.5L0 16.5L0 -0.5Z" fill="#703BF7" fill-opacity="1.000000" fill-rule="evenodd"/>
	<path id="Vector" d="M17 33.5C26.38 33.5 34 25.88 34 16.5L17 16.5L17 33.5Z" fill="#703BF7" fill-opacity="1.000000" fill-rule="evenodd"/>
	<path id="Vector" d="M34 16.5C34 7.11 26.38 -0.5 17 -0.5L17 16.5L34 16.5Z" fill="#703BF7" fill-opacity="1.000000" fill-rule="evenodd"/>
	<path id="Vector" d="M111.08 24.19L111.08 18.52C111.08 17.86 110.86 17.32 110.44 16.9C110.03 16.48 109.5 16.26 108.84 16.26C108.41 16.26 108.02 16.36 107.68 16.55C107.34 16.74 107.07 17.01 106.88 17.35C106.69 17.69 106.59 18.08 106.59 18.52L105.71 18.02C105.71 17.27 105.88 16.61 106.2 16.04C106.53 15.45 106.98 14.99 107.55 14.67C108.14 14.33 108.8 14.16 109.52 14.16C110.26 14.16 110.91 14.35 111.49 14.73C112.06 15.1 112.51 15.58 112.84 16.18C113.16 16.77 113.33 17.38 113.33 18.02L113.33 24.19L111.08 24.19ZM104.34 24.19L104.34 14.36L106.59 14.36L106.59 24.19L104.34 24.19Z" fill="#FFFFFF" fill-opacity="1.000000" fill-rule="evenodd"/>
	<path id="Vector" d="M99.56 24.19L99.56 14.36L101.81 14.36L101.81 24.19L99.56 24.19ZM100.69 12.56C100.31 12.56 99.99 12.43 99.73 12.17C99.48 11.91 99.36 11.59 99.36 11.21C99.36 10.82 99.48 10.5 99.73 10.24C99.99 9.99 100.31 9.86 100.69 9.86C101.08 9.86 101.41 9.99 101.65 10.24C101.9 10.5 102.02 10.82 102.02 11.21C102.02 11.59 101.9 11.91 101.65 12.17C101.41 12.43 101.08 12.56 100.69 12.56Z" fill="#FFFFFF" fill-opacity="1.000000" fill-rule="evenodd"/>
	<path id="Vector" d="M93.17 24.39C92.19 24.39 91.3 24.17 90.51 23.74C89.73 23.29 89.11 22.67 88.65 21.89C88.19 21.12 87.97 20.24 87.97 19.27C87.97 18.3 88.19 17.44 88.65 16.67C89.1 15.9 89.7 15.28 90.47 14.83C91.25 14.38 92.11 14.16 93.05 14.16C93.96 14.16 94.77 14.37 95.46 14.79C96.17 15.21 96.73 15.79 97.12 16.53C97.53 17.27 97.74 18.11 97.74 19.05C97.74 19.21 97.72 19.38 97.7 19.56C97.68 19.72 97.65 19.91 97.61 20.11L89.55 20.11L89.55 18.27L96.45 18.27L95.61 19.01C95.58 18.41 95.46 17.9 95.26 17.49C95.05 17.08 94.76 16.77 94.38 16.55C94.01 16.33 93.55 16.22 93.01 16.22C92.43 16.22 91.93 16.35 91.51 16.59C91.09 16.84 90.76 17.19 90.53 17.64C90.3 18.07 90.18 18.6 90.18 19.21C90.18 19.83 90.3 20.37 90.55 20.83C90.8 21.29 91.14 21.66 91.59 21.92C92.04 22.16 92.56 22.28 93.15 22.28C93.65 22.28 94.12 22.19 94.54 22.02C94.98 21.84 95.35 21.58 95.65 21.24L97.08 22.69C96.6 23.25 96.02 23.68 95.34 23.96C94.66 24.25 93.93 24.39 93.17 24.39Z" fill="#FFFFFF" fill-opacity="1.000000" fill-rule="evenodd"/>
	<path id="Vector" d="M82.64 24.19L82.64 10.27L84.89 10.27L84.89 24.19L82.64 24.19ZM80.29 16.41L80.29 14.36L87.25 14.36L87.25 16.41L80.29 16.41Z" fill="#FFFFFF" fill-opacity="1.000000" fill-rule="evenodd"/>
	<path id="Vector" d="M73.38 24.39C72.5 24.39 71.69 24.17 70.97 23.72C70.26 23.27 69.69 22.66 69.27 21.89C68.86 21.12 68.66 20.25 68.66 19.29C68.66 18.33 68.86 17.46 69.27 16.69C69.69 15.92 70.26 15.3 70.97 14.85C71.69 14.39 72.5 14.16 73.38 14.16C74.14 14.16 74.8 14.32 75.37 14.65C75.96 14.96 76.42 15.4 76.76 15.96C77.1 16.52 77.27 17.15 77.27 17.86L77.27 20.69C77.27 21.4 77.1 22.03 76.76 22.59C76.44 23.15 75.98 23.59 75.39 23.92C74.8 24.24 74.14 24.39 73.38 24.39ZM73.75 22.26C74.59 22.26 75.25 21.98 75.76 21.42C76.28 20.86 76.54 20.15 76.54 19.27C76.54 18.69 76.42 18.17 76.19 17.72C75.96 17.27 75.63 16.92 75.21 16.67C74.8 16.41 74.31 16.28 73.75 16.28C73.21 16.28 72.72 16.41 72.3 16.67C71.89 16.92 71.56 17.27 71.32 17.72C71.08 18.17 70.97 18.69 70.97 19.27C70.97 19.86 71.08 20.38 71.32 20.83C71.56 21.28 71.89 21.64 72.3 21.89C72.72 22.14 73.21 22.26 73.75 22.26ZM76.39 24.19L76.39 21.55L76.78 19.15L76.39 16.78L76.39 14.36L78.65 14.36L78.65 24.19L76.39 24.19Z" fill="#FFFFFF" fill-opacity="1.000000" fill-rule="evenodd"/>
	<path id="Vector" d="M63.31 24.19L63.31 10.27L65.56 10.27L65.56 24.19L63.31 24.19ZM60.95 16.41L60.95 14.36L67.91 14.36L67.91 16.41L60.95 16.41Z" fill="#FFFFFF" fill-opacity="1.000000" fill-rule="evenodd"/>
	<path id="Vector" d="M56.23 24.39C55.68 24.39 55.16 24.32 54.65 24.19C54.15 24.04 53.68 23.83 53.26 23.57C52.84 23.3 52.47 22.97 52.15 22.59L53.59 21.16C53.93 21.55 54.32 21.85 54.75 22.06C55.2 22.25 55.71 22.35 56.27 22.35C56.77 22.35 57.16 22.27 57.42 22.12C57.68 21.97 57.8 21.75 57.8 21.46C57.8 21.16 57.68 20.93 57.44 20.77C57.19 20.6 56.87 20.47 56.47 20.36C56.09 20.24 55.68 20.11 55.25 19.99C54.82 19.87 54.41 19.7 54.02 19.5C53.63 19.28 53.32 18.99 53.08 18.62C52.83 18.25 52.71 17.77 52.71 17.19C52.71 16.56 52.85 16.02 53.14 15.57C53.44 15.12 53.85 14.77 54.39 14.52C54.93 14.28 55.58 14.16 56.33 14.16C57.12 14.16 57.82 14.3 58.42 14.59C59.03 14.86 59.54 15.27 59.95 15.83L58.52 17.27C58.23 16.91 57.91 16.65 57.54 16.47C57.17 16.29 56.75 16.2 56.27 16.2C55.82 16.2 55.47 16.27 55.23 16.41C54.98 16.54 54.86 16.74 54.86 17C54.86 17.27 54.98 17.49 55.23 17.64C55.47 17.79 55.78 17.92 56.17 18.02C56.56 18.13 56.97 18.26 57.4 18.39C57.83 18.52 58.24 18.69 58.62 18.93C59.02 19.14 59.34 19.44 59.59 19.83C59.83 20.2 59.95 20.68 59.95 21.28C59.95 22.24 59.62 22.99 58.95 23.55C58.28 24.11 57.37 24.39 56.23 24.39Z" fill="#FFFFFF" fill-opacity="1.000000" fill-rule="evenodd"/>
	<path id="Vector" d="M41.24 24.19L41.24 9.86L43.6 9.86L43.6 24.19L41.24 24.19ZM42.86 24.19L42.86 22.04L50.89 22.04L50.89 24.19L42.86 24.19ZM42.86 17.9L42.86 15.83L50.19 15.83L50.19 17.9L42.86 17.9ZM42.86 12.01L42.86 9.86L50.79 9.86L50.79 12.01L42.86 12.01Z" fill="#FFFFFF" fill-opacity="1.000000" fill-rule="evenodd"/>
</svg>
