<svg width="28.000000" height="28.000000" viewBox="0 0 28 28" fill="none" xmlns="http://www.w3.org/2000/svg" xmlns:xlink="http://www.w3.org/1999/xlink">
	<desc>
			Created with Pixso.
	</desc>
	<defs>
		<clipPath id="clip139_7820">
			<rect id="Icon" width="28.000000" height="28.000000" transform="translate(-0.666992 0.000000)" fill="white" fill-opacity="0"/>
		</clipPath>
	</defs>
	<g clip-path="url(#clip139_7820)">
		<path id="Vector (Stroke)" d="M2.83 7.87C2.83 7.39 3.22 7 3.7 7L22.95 7C23.44 7 23.83 7.39 23.83 7.87C23.83 8.35 23.44 8.75 22.95 8.75L3.7 8.75C3.22 8.75 2.83 8.35 2.83 7.87ZM2.83 14C2.83 13.51 3.22 13.12 3.7 13.12L22.95 13.12C23.44 13.12 23.83 13.51 23.83 14C23.83 14.48 23.44 14.87 22.95 14.87L3.7 14.87C3.22 14.87 2.83 14.48 2.83 14ZM12.45 20.12C12.45 19.64 12.84 19.25 13.33 19.25L22.95 19.25C23.44 19.25 23.83 19.64 23.83 20.12C23.83 20.6 23.44 21 22.95 21L13.33 21C12.84 21 12.45 20.6 12.45 20.12Z" fill="#FFFFFF" fill-opacity="1.000000" fill-rule="evenodd"/>
	</g>
</svg>
