<svg width="24.000000" height="24.000000" viewBox="0 0 24 24" fill="none" xmlns="http://www.w3.org/2000/svg" xmlns:xlink="http://www.w3.org/1999/xlink">
	<desc>
			Created with Pixso.
	</desc>
	<defs>
		<clipPath id="clip303_7677">
			<rect id="heroicons-solid/x-mark" width="24.000000" height="24.000000" fill="white" fill-opacity="0"/>
		</clipPath>
	</defs>
	<g clip-path="url(#clip303_7677)">
		<path id="Vector (Stroke)" d="M5.46 5.46C5.76 5.17 6.23 5.17 6.53 5.46L12 10.93L17.46 5.46C17.76 5.17 18.23 5.17 18.53 5.46C18.82 5.76 18.82 6.23 18.53 6.53L13.06 12L18.53 17.46C18.82 17.76 18.82 18.23 18.53 18.53C18.23 18.82 17.76 18.82 17.46 18.53L12 13.06L6.53 18.53C6.23 18.82 5.76 18.82 5.46 18.53C5.17 18.23 5.17 17.76 5.46 17.46L10.93 12L5.46 6.53C5.17 6.23 5.17 5.76 5.46 5.46Z" fill="#FFFFFF" fill-opacity="1.000000" fill-rule="evenodd"/>
	</g>
</svg>
