<svg width="82.000000" height="82.000000" viewBox="0 0 82 82" fill="none" xmlns="http://www.w3.org/2000/svg" xmlns:xlink="http://www.w3.org/1999/xlink">
	<desc>
			Created with Pixso.
	</desc>
	<defs>
		<clipPath id="clip122_1929">
			<rect id="Icon" width="34.000000" height="34.000000" transform="translate(23.500000 24.000000)" fill="white" fill-opacity="0"/>
		</clipPath>
		<linearGradient id="paint_linear_121_1900_0" x1="6.250008" y1="86.499977" x2="85.250023" y2="-5.499985" gradientUnits="userSpaceOnUse">
			<stop stop-color="#A685FA"/>
			<stop offset="0.323723" stop-color="#A685FA" stop-opacity="0.000000"/>
		</linearGradient>
		<linearGradient id="paint_linear_121_1900_1" x1="81.250000" y1="-10.500015" x2="6.250031" y2="82.000008" gradientUnits="userSpaceOnUse">
			<stop stop-color="#A685FA"/>
			<stop offset="0.576615" stop-color="#A685FA" stop-opacity="0.000000"/>
		</linearGradient>
		<linearGradient id="paint_linear_121_1901_0" x1="2.750000" y1="13.500000" x2="71.250000" y2="72.000000" gradientUnits="userSpaceOnUse">
			<stop stop-color="#A685FA"/>
			<stop offset="0.323723" stop-color="#A685FA" stop-opacity="0.000000"/>
		</linearGradient>
		<linearGradient id="paint_linear_121_1901_1" x1="83.750000" y1="86.000015" x2="11.749989" y2="35.000031" gradientUnits="userSpaceOnUse">
			<stop stop-color="#A685FA"/>
			<stop offset="0.576615" stop-color="#A685FA" stop-opacity="0.000000"/>
		</linearGradient>
	</defs>
	<g clip-path="url(#clip122_1929)">
		<path id="Union" d="M25.62 30.9C25.62 29.43 26.81 28.25 28.28 28.25L52.71 28.25C54.18 28.25 55.37 29.43 55.37 30.9L55.37 44.71C55.37 46.18 54.18 47.37 52.71 47.37L28.28 47.37C26.81 47.37 25.62 46.18 25.62 44.71L25.62 30.9ZM35.18 37.81C35.18 34.87 37.56 32.5 40.5 32.5C43.43 32.5 45.81 34.87 45.81 37.81C45.81 40.74 43.43 43.12 40.5 43.12C37.56 43.12 35.18 40.74 35.18 37.81ZM40.5 34.62C38.73 34.62 37.31 36.05 37.31 37.81C37.31 39.57 38.73 41 40.5 41C42.26 41 43.68 39.57 43.68 37.81C43.68 36.05 42.26 34.62 40.5 34.62ZM29.87 37.81C29.87 37.22 30.35 36.75 30.93 36.75L30.94 36.75C31.53 36.75 32.01 37.22 32.01 37.81L32.01 37.82C32.01 38.4 31.53 38.88 30.94 38.88L30.93 38.88C30.35 38.88 29.87 38.4 29.87 37.82L29.87 37.81ZM50.06 36.75C49.47 36.75 49 37.22 49 37.81L49 37.82C49 38.4 49.47 38.88 50.06 38.88L50.07 38.88C50.66 38.88 51.13 38.4 51.13 37.82L51.13 37.81C51.13 37.22 50.66 36.75 50.07 36.75L50.06 36.75ZM25.62 50.56C25.62 49.97 26.1 49.5 26.68 49.5L51.12 49.5C51.71 49.5 52.18 49.97 52.18 50.56L52.18 51.98C52.18 53.77 50.47 55.02 48.78 54.56C41.74 52.64 34.33 51.62 26.68 51.62C26.1 51.62 25.62 51.14 25.62 50.56Z" fill="#A685FA" fill-opacity="1.000000" fill-rule="evenodd"/>
	</g>
	<rect id="Container" rx="30.500000" width="61.000000" height="61.000000" transform="translate(10.000000 10.500000)" stroke="url(#paint_linear_121_1901_0)" stroke-opacity="1.000000" stroke-width="1.000000"/>
	<rect id="Container" rx="30.500000" width="61.000000" height="61.000000" transform="translate(10.000000 10.500000)" stroke="url(#paint_linear_121_1901_1)" stroke-opacity="1.000000" stroke-width="1.000000"/>
	<rect id="Icon Container" rx="40.500000" width="81.000000" height="81.000000" transform="translate(0.000000 0.500000)" stroke="url(#paint_linear_121_1900_0)" stroke-opacity="1.000000" stroke-width="1.000000"/>
	<rect id="Icon Container" rx="40.500000" width="81.000000" height="81.000000" transform="translate(0.000000 0.500000)" stroke="url(#paint_linear_121_1900_1)" stroke-opacity="1.000000" stroke-width="1.000000"/>
</svg>
