<svg width="82.000000" height="82.000000" viewBox="0 0 82 82" fill="none" xmlns="http://www.w3.org/2000/svg" xmlns:xlink="http://www.w3.org/1999/xlink">
	<desc>
			Created with Pixso.
	</desc>
	<defs>
		<clipPath id="clip122_2107">
			<rect id="Icon" width="34.000000" height="34.000000" transform="translate(24.000000 24.000000)" fill="white" fill-opacity="0"/>
		</clipPath>
		<linearGradient id="paint_linear_104_11495_0" x1="6.750008" y1="86.499977" x2="85.750023" y2="-5.499985" gradientUnits="userSpaceOnUse">
			<stop stop-color="#A685FA"/>
			<stop offset="0.323723" stop-color="#A685FA" stop-opacity="0.000000"/>
		</linearGradient>
		<linearGradient id="paint_linear_104_11495_1" x1="81.750000" y1="-10.500015" x2="6.750031" y2="82.000008" gradientUnits="userSpaceOnUse">
			<stop stop-color="#A685FA"/>
			<stop offset="0.576615" stop-color="#A685FA" stop-opacity="0.000000"/>
		</linearGradient>
		<linearGradient id="paint_linear_104_11496_0" x1="3.250000" y1="13.500000" x2="71.750000" y2="72.000000" gradientUnits="userSpaceOnUse">
			<stop stop-color="#A685FA"/>
			<stop offset="0.323723" stop-color="#A685FA" stop-opacity="0.000000"/>
		</linearGradient>
		<linearGradient id="paint_linear_104_11496_1" x1="84.250000" y1="86.000015" x2="12.249989" y2="35.000031" gradientUnits="userSpaceOnUse">
			<stop stop-color="#A685FA"/>
			<stop offset="0.576615" stop-color="#A685FA" stop-opacity="0.000000"/>
		</linearGradient>
	</defs>
	<g clip-path="url(#clip122_2107)">
		<path id="Subtract" d="M51.62 39.93C51.62 36.21 51 32.63 49.87 29.29C49.79 29.07 49.71 28.84 49.62 28.61C49.42 28.06 49.71 27.45 50.26 27.25C50.81 27.05 51.42 27.33 51.62 27.88C51.82 28.42 52 28.97 52.17 29.52C52.92 31.91 53.41 34.41 53.62 36.99C54.35 37.75 54.81 38.79 54.81 39.93C54.81 41.08 54.35 42.11 53.62 42.88C53.41 45.45 52.92 47.95 52.17 50.34C52 50.9 51.82 51.44 51.62 51.99C51.42 52.54 50.81 52.82 50.26 52.62C49.71 52.42 49.42 51.81 49.62 51.25C49.71 51.03 49.79 50.8 49.87 50.57C51 47.23 51.62 43.66 51.62 39.93ZM38.55 32.37C41.83 32.09 44.98 31.32 47.91 30.15C48.94 33.22 49.5 36.51 49.5 39.93C49.5 43.35 48.94 46.64 47.91 49.71C45.44 48.73 42.83 48.03 40.12 47.67C40.38 48.44 40.67 49.2 41.01 49.94C41.57 51.18 41.16 52.72 39.91 53.44L38.98 53.98C37.7 54.72 35.98 54.27 35.32 52.85C34.5 51.07 33.85 49.21 33.37 47.27C29.86 46.67 27.18 43.62 27.18 39.93C27.18 35.82 30.51 32.5 34.62 32.5L35.68 32.5C36.65 32.5 37.61 32.45 38.55 32.37Z" fill="#A685FA" fill-opacity="1.000000" fill-rule="evenodd"/>
	</g>
	<rect id="Container" rx="30.500000" width="61.000000" height="61.000000" transform="translate(10.500000 10.500000)" stroke="url(#paint_linear_104_11496_0)" stroke-opacity="1.000000" stroke-width="1.000000"/>
	<rect id="Container" rx="30.500000" width="61.000000" height="61.000000" transform="translate(10.500000 10.500000)" stroke="url(#paint_linear_104_11496_1)" stroke-opacity="1.000000" stroke-width="1.000000"/>
	<rect id="Icon Container" rx="40.500000" width="81.000000" height="81.000000" transform="translate(0.500000 0.500000)" stroke="url(#paint_linear_104_11495_0)" stroke-opacity="1.000000" stroke-width="1.000000"/>
	<rect id="Icon Container" rx="40.500000" width="81.000000" height="81.000000" transform="translate(0.500000 0.500000)" stroke="url(#paint_linear_104_11495_1)" stroke-opacity="1.000000" stroke-width="1.000000"/>
</svg>
