<svg width="82.000000" height="82.000000" viewBox="0 0 82 82" fill="none" xmlns="http://www.w3.org/2000/svg" xmlns:xlink="http://www.w3.org/1999/xlink">
	<desc>
			Created with Pixso.
	</desc>
	<defs>
		<clipPath id="clip122_2105">
			<rect id="Icon" width="34.000000" height="34.000000" transform="translate(24.000000 24.000000)" fill="white" fill-opacity="0"/>
		</clipPath>
		<linearGradient id="paint_linear_104_11473_0" x1="6.750008" y1="86.499977" x2="85.750023" y2="-5.499985" gradientUnits="userSpaceOnUse">
			<stop stop-color="#A685FA"/>
			<stop offset="0.323723" stop-color="#A685FA" stop-opacity="0.000000"/>
		</linearGradient>
		<linearGradient id="paint_linear_104_11473_1" x1="81.750000" y1="-10.500015" x2="6.750031" y2="82.000008" gradientUnits="userSpaceOnUse">
			<stop stop-color="#A685FA"/>
			<stop offset="0.576615" stop-color="#A685FA" stop-opacity="0.000000"/>
		</linearGradient>
		<linearGradient id="paint_linear_104_11474_0" x1="3.250000" y1="13.500000" x2="71.750000" y2="72.000000" gradientUnits="userSpaceOnUse">
			<stop stop-color="#A685FA"/>
			<stop offset="0.323723" stop-color="#A685FA" stop-opacity="0.000000"/>
		</linearGradient>
		<linearGradient id="paint_linear_104_11474_1" x1="84.250000" y1="86.000015" x2="12.249989" y2="35.000031" gradientUnits="userSpaceOnUse">
			<stop stop-color="#A685FA"/>
			<stop offset="0.576615" stop-color="#A685FA" stop-opacity="0.000000"/>
		</linearGradient>
	</defs>
	<g clip-path="url(#clip122_2105)">
		<path id="Vector" d="M41 39.93C48.04 39.93 53.75 36.84 53.75 33.03C53.75 29.21 48.04 26.12 41 26.12C33.95 26.12 28.25 29.21 28.25 33.03C28.25 36.84 33.95 39.93 41 39.93ZM51.02 39.78C48.35 41.23 44.8 42.06 41 42.06C37.19 42.06 33.64 41.23 30.97 39.78C29.99 39.25 29.06 38.59 28.28 37.82C28.26 37.99 28.25 38.16 28.25 38.34C28.25 42.15 33.95 45.25 41 45.25C48.04 45.25 53.75 42.15 53.75 38.34C53.75 38.16 53.73 37.99 53.71 37.82C52.93 38.59 52 39.25 51.02 39.78ZM41 47.37C44.8 47.37 48.35 46.54 51.02 45.09C52 44.56 52.93 43.91 53.71 43.13C53.73 43.3 53.75 43.48 53.75 43.65C53.75 47.47 48.04 50.56 41 50.56C33.95 50.56 28.25 47.47 28.25 43.65C28.25 43.48 28.26 43.3 28.28 43.13C29.06 43.91 29.99 44.56 30.97 45.09C33.64 46.54 37.19 47.37 41 47.37ZM51.02 50.4C48.35 51.85 44.8 52.68 41 52.68C37.19 52.68 33.64 51.85 30.97 50.4C29.99 49.87 29.06 49.22 28.28 48.44C28.26 48.61 28.25 48.79 28.25 48.96C28.25 52.78 33.95 55.87 41 55.87C48.04 55.87 53.75 52.78 53.75 48.96C53.75 48.79 53.73 48.61 53.71 48.44C52.93 49.22 52 49.87 51.02 50.4Z" fill="#A685FA" fill-opacity="1.000000" fill-rule="evenodd"/>
	</g>
	<rect id="Container" rx="30.500000" width="61.000000" height="61.000000" transform="translate(10.500000 10.500000)" stroke="url(#paint_linear_104_11474_0)" stroke-opacity="1.000000" stroke-width="1.000000"/>
	<rect id="Container" rx="30.500000" width="61.000000" height="61.000000" transform="translate(10.500000 10.500000)" stroke="url(#paint_linear_104_11474_1)" stroke-opacity="1.000000" stroke-width="1.000000"/>
	<rect id="Icon Container" rx="40.500000" width="81.000000" height="81.000000" transform="translate(0.500000 0.500000)" stroke="url(#paint_linear_104_11473_0)" stroke-opacity="1.000000" stroke-width="1.000000"/>
	<rect id="Icon Container" rx="40.500000" width="81.000000" height="81.000000" transform="translate(0.500000 0.500000)" stroke="url(#paint_linear_104_11473_1)" stroke-opacity="1.000000" stroke-width="1.000000"/>
</svg>
