<svg width="82.000000" height="82.000000" viewBox="0 0 82 82" fill="none" xmlns="http://www.w3.org/2000/svg" xmlns:xlink="http://www.w3.org/1999/xlink">
	<desc>
			Created with Pixso.
	</desc>
	<defs>
		<clipPath id="clip122_2101">
			<rect id="Icon" width="34.000000" height="34.000000" transform="translate(24.000000 24.000000)" fill="white" fill-opacity="0"/>
		</clipPath>
		<linearGradient id="paint_linear_104_11410_0" x1="6.750008" y1="86.499977" x2="85.750023" y2="-5.499985" gradientUnits="userSpaceOnUse">
			<stop stop-color="#A685FA"/>
			<stop offset="0.323723" stop-color="#A685FA" stop-opacity="0.000000"/>
		</linearGradient>
		<linearGradient id="paint_linear_104_11410_1" x1="81.750000" y1="-10.500015" x2="6.750031" y2="82.000008" gradientUnits="userSpaceOnUse">
			<stop stop-color="#A685FA"/>
			<stop offset="0.576615" stop-color="#A685FA" stop-opacity="0.000000"/>
		</linearGradient>
		<linearGradient id="paint_linear_104_11411_0" x1="3.250000" y1="13.500000" x2="71.750000" y2="72.000000" gradientUnits="userSpaceOnUse">
			<stop stop-color="#A685FA"/>
			<stop offset="0.323723" stop-color="#A685FA" stop-opacity="0.000000"/>
		</linearGradient>
		<linearGradient id="paint_linear_104_11411_1" x1="84.250000" y1="86.000015" x2="12.249989" y2="35.000031" gradientUnits="userSpaceOnUse">
			<stop stop-color="#A685FA"/>
			<stop offset="0.576615" stop-color="#A685FA" stop-opacity="0.000000"/>
		</linearGradient>
	</defs>
	<g clip-path="url(#clip122_2101)">
		<path id="Union" d="M50.03 27.18C48.56 27.18 47.37 28.37 47.37 29.84L47.37 52.15C47.37 53.62 48.56 54.81 50.03 54.81L51.09 54.81C52.56 54.81 53.75 53.62 53.75 52.15L53.75 29.84C53.75 28.37 52.56 27.18 51.09 27.18L50.03 27.18ZM37.81 36.21C37.81 34.75 39 33.56 40.46 33.56L41.53 33.56C43 33.56 44.18 34.75 44.18 36.21L44.18 52.15C44.18 53.62 43 54.81 41.53 54.81L40.46 54.81C39 54.81 37.81 53.62 37.81 52.15L37.81 36.21ZM30.9 39.93C29.43 39.93 28.25 41.12 28.25 42.59L28.25 52.15C28.25 53.62 29.43 54.81 30.9 54.81L31.96 54.81C33.43 54.81 34.62 53.62 34.62 52.15L34.62 42.59C34.62 41.12 33.43 39.93 31.96 39.93L30.9 39.93Z" fill="#A685FA" fill-opacity="1.000000" fill-rule="evenodd"/>
	</g>
	<rect id="Container" rx="30.500000" width="61.000000" height="61.000000" transform="translate(10.500000 10.500000)" stroke="url(#paint_linear_104_11411_0)" stroke-opacity="1.000000" stroke-width="1.000000"/>
	<rect id="Container" rx="30.500000" width="61.000000" height="61.000000" transform="translate(10.500000 10.500000)" stroke="url(#paint_linear_104_11411_1)" stroke-opacity="1.000000" stroke-width="1.000000"/>
	<rect id="Icon Container" rx="40.500000" width="81.000000" height="81.000000" transform="translate(0.500000 0.500000)" stroke="url(#paint_linear_104_11410_0)" stroke-opacity="1.000000" stroke-width="1.000000"/>
	<rect id="Icon Container" rx="40.500000" width="81.000000" height="81.000000" transform="translate(0.500000 0.500000)" stroke="url(#paint_linear_104_11410_1)" stroke-opacity="1.000000" stroke-width="1.000000"/>
</svg>
