<svg width="24.000000" height="24.000000" viewBox="0 0 24 24" fill="none" xmlns="http://www.w3.org/2000/svg" xmlns:xlink="http://www.w3.org/1999/xlink">
	<desc>
			Created with Pixso.
	</desc>
	<defs>
		<clipPath id="clip115_1668">
			<rect id="Icon" width="24.000000" height="24.000000" transform="translate(-0.250000 0.000000)" fill="white" fill-opacity="0"/>
		</clipPath>
	</defs>
	<rect id="Icon" width="24.000000" height="24.000000" transform="translate(-0.250000 0.000000)" fill="#000000" fill-opacity="0"/>
	<g clip-path="url(#clip115_1668)">
		<path id="Fill-1" d="M21.17 2.57C20.67 2.06 19.93 1.87 19.24 2.07L3.15 6.72C2.42 6.92 1.91 7.5 1.77 8.23C1.63 8.98 2.12 9.93 2.77 10.32L7.8 13.4C8.32 13.71 8.98 13.63 9.41 13.2L15.17 7.44C15.46 7.14 15.94 7.14 16.23 7.44C16.52 7.73 16.52 8.2 16.23 8.5L10.46 14.26C10.03 14.69 9.95 15.36 10.27 15.87L13.34 20.92C13.7 21.52 14.32 21.86 15 21.86C15.08 21.86 15.17 21.86 15.25 21.85C16.03 21.75 16.65 21.22 16.88 20.47L21.65 4.5C21.86 3.82 21.67 3.08 21.17 2.57Z" fill="#FFFFFF" fill-opacity="1.000000" fill-rule="nonzero"/>
		<g opacity="0.400000">
			<path id="Combined-Shape" d="M9.2 19.14C9.49 19.43 9.49 19.91 9.2 20.2L7.83 21.56C7.68 21.71 7.49 21.78 7.3 21.78C7.11 21.78 6.92 21.71 6.77 21.56C6.48 21.27 6.48 20.8 6.77 20.5L8.14 19.14C8.43 18.85 8.9 18.85 9.2 19.14ZM8.41 15.35C8.7 15.64 8.7 16.12 8.41 16.41L7.05 17.78C6.9 17.92 6.71 18 6.52 18C6.33 18 6.13 17.92 5.99 17.78C5.69 17.48 5.69 17.01 5.99 16.72L7.35 15.35C7.64 15.06 8.12 15.06 8.41 15.35ZM4.65 14.16C4.94 14.45 4.94 14.92 4.65 15.22L3.29 16.58C3.14 16.73 2.95 16.8 2.76 16.8C2.56 16.8 2.37 16.73 2.23 16.58C1.93 16.29 1.93 15.82 2.23 15.52L3.59 14.16C3.88 13.86 4.36 13.86 4.65 14.16Z" fill="#FFFFFF" fill-opacity="1.000000" fill-rule="nonzero"/>
		</g>
	</g>
</svg>
