<svg width="24.000000" height="24.000000" viewBox="0 0 24 24" fill="none" xmlns="http://www.w3.org/2000/svg" xmlns:xlink="http://www.w3.org/1999/xlink">
	<desc>
			Created with Pixso.
	</desc>
	<defs>
		<clipPath id="clip122_2006">
			<rect id="BACKGROUND_2" width="22.000000" height="17.000000" transform="translate(1.000000 3.500000)" fill="white" fill-opacity="0"/>
		</clipPath>
		<clipPath id="clip122_2005">
			<rect id="Icon" width="24.000000" height="24.000000" transform="translate(0.000000 -0.500000)" fill="white" fill-opacity="0"/>
		</clipPath>
	</defs>
	<g clip-path="url(#clip122_2005)">
		<rect id="BACKGROUND_2" width="22.000000" height="17.000000" transform="translate(1.000000 3.500000)" fill="#FFFFFF" fill-opacity="0"/>
		<g clip-path="url(#clip122_2006)">
			<path id="Vector" d="M12.01 18.95C9.01 18.95 6.01 18.95 3.01 18.95C2.71 18.95 2.57 19.09 2.57 19.39C2.57 19.47 2.57 19.55 2.57 19.62C2.56 19.72 2.55 19.81 2.54 19.9C2.47 20.23 2.15 20.5 1.77 20.49C1.39 20.49 1.08 20.21 1.02 19.84C1.01 19.76 1 19.67 1 19.58C1 17.82 0.99 16.06 1 14.3C1.01 13.27 1.39 12.38 2.12 11.64C2.56 11.19 3.09 10.86 3.69 10.66C4.16 10.5 4.65 10.45 5.15 10.45C9.76 10.45 14.37 10.45 18.98 10.45C20.33 10.46 21.43 10.99 22.24 12.06C22.64 12.58 22.87 13.18 22.95 13.83C22.98 14.05 22.99 14.27 22.99 14.5C23 16.21 23 17.92 23 19.63C23 19.89 22.93 20.14 22.71 20.31C22.47 20.5 22.21 20.55 21.92 20.43C21.66 20.32 21.48 20.12 21.45 19.83C21.43 19.69 21.43 19.54 21.43 19.39C21.42 19.15 21.32 19.01 21.12 18.96C21.07 18.95 21.03 18.96 20.98 18.96C17.99 18.96 15 18.96 12.01 18.96L12.01 18.95Z" fill="#FFFFFF" fill-opacity="1.000000" fill-rule="nonzero"/>
			<path id="Vector" d="M11.9 3.5C13.84 3.5 15.79 3.5 17.73 3.5C18.38 3.5 18.99 3.64 19.52 4.03C20.19 4.54 20.58 5.21 20.62 6.06C20.65 6.77 20.63 7.49 20.64 8.2C20.64 8.66 20.64 9.12 20.64 9.58C20.64 9.62 20.63 9.67 20.62 9.71C20.59 9.83 20.52 9.88 20.39 9.86C20.25 9.83 20.12 9.77 19.97 9.76C19.64 9.72 19.31 9.7 18.98 9.68C18.76 9.67 18.69 9.63 18.66 9.41C18.55 8.73 17.91 8.12 17.1 8.13C16.18 8.14 15.27 8.13 14.36 8.13C13.68 8.13 13.1 8.53 12.87 9.16C12.83 9.25 12.82 9.35 12.8 9.44C12.77 9.61 12.71 9.67 12.54 9.68C12.18 9.68 11.81 9.68 11.46 9.68C11.29 9.68 11.22 9.61 11.19 9.42C11.15 9.16 11.05 8.92 10.88 8.72C10.57 8.34 10.17 8.14 9.68 8.13C8.74 8.13 7.8 8.13 6.85 8.13C6.06 8.13 5.44 8.74 5.34 9.41C5.31 9.63 5.24 9.67 5.02 9.68C4.65 9.71 4.29 9.74 3.92 9.78C3.81 9.79 3.7 9.84 3.59 9.86C3.47 9.88 3.41 9.84 3.38 9.72C3.36 9.67 3.36 9.62 3.36 9.58C3.36 8.47 3.34 7.37 3.36 6.26C3.38 5.11 3.92 4.26 4.98 3.74C5.4 3.54 5.86 3.5 6.32 3.5C8.18 3.5 10.04 3.5 11.9 3.5Z" fill="#FFFFFF" fill-opacity="1.000000" fill-rule="nonzero"/>
		</g>
	</g>
</svg>
